/* XPM */
static char *result[] = {
/* columns rows colors chars-per-pixel */
"50 50 36 1 ",
"  c #A7A4A4",
". c #A7A5A5",
"X c #A69D9C",
"o c #A46A67",
"O c #A3605E",
"+ c #A3615E",
"@ c #A09D9D",
"# c #9F9494",
"$ c #9C5D5A",
"% c #9C5350",
"& c #A09E9E",
"* c #A09594",
"= c #9D5D5B",
"- c #9C5451",
"; c #9A9B9D",
": c #9A9C9E",
"> c #999495",
", c #97625C",
"< c #975951",
"1 c #975A52",
"2 c #59869F",
"3 c #5A8897",
"4 c #619463",
"5 c #639659",
"6 c #63965A",
"7 c #48819F",
"8 c #4880A0",
"9 c #498597",
"0 c #53A165",
"q c #55A65C",
"w c #49819F",
"e c #4A8597",
"r c #54A065",
"t c #56A55B",
"y c #56A55C",
"u c white",
/* pixels */
"                       .XoO+++++++++++++++++++++++",
"@@@@@@@@@@@@@@@@@@@@@@@@#$%%%%%%%%%%%%%%%%%%%%%%%%",
"@@@@@@@@@@@@@@@@@@@@@@@&*=%-----------------------",
"@@@@@@@@@@@@@@@@@@@@@@@&*=%-----------------------",
"@@@@@@@@@@@@@@@@@@@@@@@&*=%-----------------------",
"@@@@@@@@@@@@@@@@@@@@@@@&*=%-----------------------",
"@@@@@@@@@@@@@@@@@@@@@@@&*=%-----------------------",
"@@@@@@@@@@@@@@@@@@@@@@@&*=%-----------------------",
"@@@@@@@@@@@@@@@@@@@@@@@&*=%-----------------------",
"@@@@@@@@@@@@@@@@@@@@@@@&*=%-----------------------",
"@@@@@@@@@@@@@@@@@@@@@@@&*=%-----------------------",
"@@@@@@@@@@@@@@@@@@@@@@@&*=%-----------------------",
"@@@@@@@@@@@@@@@@@@@@@@@&*=%-----------------------",
"@@@@@@@@@@@@@@@@@@@@@@@&*=%-----------------------",
"@@@@@@@@@@@@@@@@@@@@@@@&*=%-----------------------",
"@@@@@@@@@@@@@@@@@@@@@@@&*=%-----------------------",
"@@@@@@@@@@@@@@@@@@@@@@@&*=%-----------------------",
"@@@@@@@@@@@@@@@@@@@@@@@&*=%-----------------------",
"@@@@@@@@@@@@@@@@@@@@@@@&*=%-----------------------",
"@@@@@@@@@@@@@@@@@@@@@@@&*=%-----------------------",
"@@@@@@@@@@@@@@@@@@@@@@@&*=%-----------------------",
"@@@@@@@@@@@@@@@@@@@@@@@&*=%-----------------------",
"@@@@@@@@@@@@@@@@@@@@@@@&*=%-----------------------",
"@@@@@@@@@@@@@@@@@@@@@@@&*=%-----------------------",
";;;;;;;;;;;;;;;;;;;;;;;:>,<11111111111111111111111",
"22222222222222222222222234566666666666666666666666",
"77777777777777777777777890qqqqqqqqqqqqqqqqqqqqqqqq",
"wwwwwwwwwwwwwwwwwwwwwwwwertyyyyyyyyyyyyyyyyyyyyyyy",
"wwwwwwwwwwwwwwwwwwwwwwwwertyyyyyyyyyyyyyyyyyyyyyyy",
"wwwwwwwwwwwwwwwwwwwwwwwwertyyyyyyyyyyyyyyyyyyyyyyy",
"wwwwwwwwwwwwwwwwwwwwwwwwertyyyyyyyyyyyyyyyyyyyyyyy",
"wwwwwwwwwwwwwwwwwwwwwwwwertyyyyyyyyyyyyyyyyyyyyyyy",
"wwwwwwwwwwwwwwwwwwwwwwwwertyyyyyyyyyyyyyyyyyyyyyyy",
"wwwwwwwwwwwwwwwwwwwwwwwwertyyyyyyyyyyyyyyyyyyyyyyy",
"wwwwwwwwwwwwwwwwwwwwwwwwertyyyyyyyyyyyyyyyyyyyyyyy",
"wwwwwwwwwwwwwwwwwwwwwwwwertyyyyyyyyyyyyyyyyyyyyyyy",
"wwwwwwwwwwwwwwwwwwwwwwwwertyyyyyyyyyyyyyyyyyyyyyyy",
"wwwwwwwwwwwwwwwwwwwwwwwwertyyyyyyyyyyyyyyyyyyyyyyy",
"wwwwwwwwwwwwwwwwwwwwwwwwertyyyyyyyyyyyyyyyyyyyyyyy",
"wwwwwwwwwwwwwwwwwwwwwwwwertyyyyyyyyyyyyyyyyyyyyyyy",
"wwwwwwwwwwwwwwwwwwwwwwwwertyyyyyyyyyyyyyyyyyyyyyyy",
"wwwwwwwwwwwwwwwwwwwwwwwwertyyyyyyyyyyyyyyyyyyyyyyy",
"wwwwwwwwwwwwwwwwwwwwwwwwertyyyyyyyyyyyyyyyyyyyyyyy",
"wwwwwwwwwwwwwwwwwwwwwwwwertyyyyyyyyyyyyyyyyyyyyyyy",
"wwwwwwwwwwwwwwwwwwwwwwwwertyyyyyyyyyyyyyyyyyyyyyyy",
"wwwwwwwwwwwwwwwwwwwwwwwwertyyyyyyyyyyyyyyyyyyyyyyy",
"wwwwwwwwwwwwwwwwwwwwwwwwertyyyyyyyyyyyyyyyyyyyyyyy",
"wwwwwwwwwwwwwwwwwwwwwwwwertyyyyyyyyyyyyyyyyyyyyyyy",
"wwwwwwwwwwwwwwwwwwwwwwwwertyyyyyyyyyyyyyyyyyyyyyyy",
"wwwwwwwwwwwwwwwwwwwwwwwwertyyyyyyyyyyyyyyyyyyyyyyy"
};
