/* XPM */
static char *_a7036b69e7e40f0de7b8e5b1cfbcde3VRZLomw24np71m9b[] = {
/* columns rows colors chars-per-pixel */
"50 50 238 2 ",
"   c #191B1B",
".  c #241E1C",
"X  c #2A1E1E",
"o  c #331E1D",
"O  c #3C1D1C",
"+  c #24221E",
"@  c #2A231E",
"#  c #38211F",
"$  c #171A22",
"%  c #1B1E21",
"&  c #331F20",
"*  c #1D2223",
"=  c #1F282A",
"-  c #242324",
";  c #282526",
":  c #252A2D",
">  c #2A2C2C",
",  c #3C2322",
"<  c #362826",
"1  c #3A332C",
"2  c #272C31",
"3  c #2A2E31",
"4  c #322E31",
"5  c #2C3234",
"6  c #2D333A",
"7  c #353639",
"8  c #353A3C",
"9  c #383838",
"0  c #431D1C",
"q  c #47211E",
"w  c #461E20",
"e  c #442523",
"r  c #4C2423",
"t  c #482928",
"y  c #532623",
"u  c #592929",
"i  c #4A332E",
"p  c #443433",
"a  c #483A38",
"s  c #573A39",
"d  c #662D2C",
"f  c #6E2E2D",
"g  c #6B302E",
"h  c #75312D",
"j  c #7D312C",
"k  c #6C3333",
"l  c #683637",
"z  c #6C3B3C",
"x  c #733534",
"c  c #7B3333",
"v  c #743936",
"b  c #7D3835",
"n  c #74363A",
"m  c #743A3B",
"M  c #7B3C3B",
"N  c #38453B",
"B  c #48423B",
"V  c #56433A",
"C  c #67493A",
"Z  c #714E3E",
"A  c #3A3E42",
"S  c #443B42",
"D  c #6D3F41",
"F  c #7A3E41",
"G  c #3C4243",
"H  c #374A47",
"J  c #39554D",
"K  c #395755",
"L  c #3C5954",
"P  c #3D615B",
"I  c #3F6260",
"U  c #424445",
"Y  c #474747",
"T  c #4B4B4B",
"R  c #594947",
"E  c #544C4B",
"W  c #48534C",
"Q  c #57524B",
"!  c #5B534D",
"~  c #4A4C52",
"^  c #5A4D52",
"/  c #465854",
"(  c #535353",
")  c #5B5352",
"_  c #5A5958",
"`  c #674948",
"'  c #784746",
"]  c #685649",
"[  c #765A49",
"{  c #6D4E52",
"}  c #635554",
"|  c #635B55",
" . c #685957",
".. c #695B5A",
"X. c #755A56",
"o. c #7D5E52",
"O. c #466557",
"+. c #43625C",
"@. c #58645A",
"#. c #47705D",
"$. c #74614F",
"%. c #7C624C",
"&. c #6A6159",
"*. c #73655C",
"=. c #786659",
"-. c #7F705D",
";. c #565F61",
":. c #6D5D63",
">. c #466863",
",. c #576866",
"<. c #4A746A",
"1. c #58766C",
"2. c #567D75",
"3. c #686967",
"4. c #746D64",
"5. c #786867",
"6. c #697468",
"7. c #7C766A",
"8. c #676C71",
"9. c #6A7876",
"0. c #7B7876",
"q. c #82322D",
"w. c #843332",
"e. c #8B3435",
"r. c #893B37",
"t. c #833C3C",
"y. c #87413E",
"u. c #863E41",
"i. c #824242",
"p. c #8B4445",
"a. c #864849",
"s. c #8D4B4B",
"d. c #924647",
"f. c #94464A",
"g. c #944C4C",
"h. c #994B4B",
"j. c #8F554C",
"k. c #854E51",
"l. c #994D52",
"z. c #875757",
"x. c #985657",
"c. c #A64A48",
"v. c #B5494D",
"b. c #A6514F",
"n. c #B1544F",
"m. c #A84D52",
"M. c #B74B53",
"N. c #AC5253",
"B. c #A65859",
"V. c #B65658",
"C. c #866557",
"Z. c #846B55",
"A. c #846C5B",
"S. c #8C6C5A",
"D. c #906A58",
"F. c #86725B",
"G. c #8B735D",
"H. c #B2605F",
"J. c #975E63",
"K. c #AF5C64",
"L. c #886767",
"P. c #956765",
"I. c #877766",
"U. c #8C7564",
"Y. c #83756C",
"T. c #8C7B6C",
"R. c #977868",
"E. c #937C6B",
"W. c #8A6D72",
"Q. c #877976",
"!. c #957775",
"~. c #A76666",
"^. c #B86564",
"/. c #B17472",
"(. c #C26B67",
"). c #5C8678",
"_. c #68887D",
"`. c #708E7C",
"'. c #98836D",
"]. c #8B8275",
"[. c #8C837B",
"{. c #948372",
"}. c #9A8574",
"|. c #93857C",
" X c #9B8979",
".X c #89967D",
"XX c #A1856E",
"oX c #A48874",
"OX c #A18C7B",
"+X c #B7857A",
"@X c #A5947D",
"#X c #717D81",
"$X c #937B84",
"%X c #5E8A83",
"&X c #659488",
"*X c #72928B",
"=X c #71A29D",
"-X c #89888A",
";X c #958685",
":X c #9D8C82",
">X c #918F8E",
",X c #8A9997",
"<X c #999898",
"1X c #A58D8A",
"2X c #B78A89",
"3X c #A39383",
"4X c #A3968A",
"5X c #A99888",
"6X c #AB9C8B",
"7X c #B89889",
"8X c #A99B97",
"9X c #B39E92",
"0X c #91A998",
"qX c #AAA298",
"wX c #B2A395",
"eX c #B3A890",
"rX c #BAA99A",
"tX c #999CA1",
"yX c #A899A1",
"uX c #9AA5AA",
"iX c #A8A7A8",
"pX c #B8A7A6",
"aX c #B4B2AE",
"sX c #A5AEB2",
"dX c #ACB5BA",
"fX c #B7B6B9",
"gX c #C29089",
"hX c #C9AA97",
"jX c #C7A998",
"kX c #CBB0A2",
"lX c #C3B7A9",
"zX c #CEC1B0",
"xX c #B2BBC1",
"cX c #C1BEC3",
"vX c #BCC4C7",
"bX c #C9C6C9",
"nX c #CFD0D4",
"mX c #D6DBE2",
/* pixels */
"9XhX+XH.n.n.b.B./.gXgXW.{ ^ R R k.H.n.c.e.q.q.j d t 4 J %X=X&X*X*X%X&X&X<.<.I I K H S k.z.5.$X8XP.n ",
"jXkX+XB.n.B.b.l./.(.$X~.^ ^ R R j.H.n.c.r.q.q.q.g i 8 / 2.%X*XsXfX=X&X&X#X>.I K K H D n P.;X$X5.5.z.",
"7XkX+XB.b.b.b.l.V././.L.^ ^ ^ D h.V.n.c.e.q.j f u s T H K 1.tXcXbXsX=X&X<.I I K H a l F W.$XyX<XyXyX",
"@XkXgXb.b.b.b.B.^.(./.P.{ ^ } C g.V.c.c.q.j j d y V Q N / 8.*XfXvX,X%X%X<.I K K H S l F k.$XxXsXsXiX",
"@XhX7XB.b.n.N.H.(.(.^.j.} ^ Q ` s.n.N.c.u.v z ` ` 3.3.;.8.8.9.#X>X#X%X#XI L K K J S k c n z.$X!.W.W.",
"@XhXhXoXx.B.B.H.V.(.^.x.{ ) ^ ` s.V.M.u.a.{ {  .3.5.8.8.8.8.8.3.5.8.#X,.L K J J G s g j h c n m D n ",
"XXhXzXhX+X/.~.^.^.(.^.z.{ _ E } k.x.l.X. .| _ T _ _ ~ U ~ ( ~ _ ,.3.8.,.,./ W ~ E s f h h h f f f h ",
"XXeXlXaXlX9XgX+X/./.~.z.{ ) ^ } k.k.z.:._ T Y U Y G G A A G a 8 Y ~ _ 3.8.,.3...X.z.a.' n z ' ` F F ",
"XX@XlXeXsXrXrXhXgX+X+X'.=.*.} ` { .._ _ ~ Y U U G A Y Y U ~ A A G G T W _ 8.&.` $XpXfXpXW.W.pXyXyXyX",
"XX@XeX`.0X0XwXjX7XhXhXgX7X XT.*.} _ ~ T S 8 8 5 7 7 7 7 A A H A G 8 N B H ~ :.5.yXmXmXmX$X1XbXbXbXbX",
"'.@X.X`.=X*X4X5XR.oXoXgXjX7X9XQ.^ S 5 7 4 > : = ; : - : = A 6 A 8 8 1 N N U ( 5.1XcXmXmX>X$XfXfXfXfX",
".X.X).).*X_. X/.R.R.R.G.P.R.:X7.S 3 * : * * * - % - - : 2 2 = = 5 5 5 9 8 8 U 4.;XyXxXnX#XD { .. .:.",
"`.$.,.).%X5.P.P.x.P.R.~.C.[ X...S > ; - - % $ % % % * : 2 2 2 2 3 3 > 5 7 7 G &.Q.qXdXsX:.u r t r e ",
"@.N O.2.0.z.g.a.Z ' z.P.P.z.X.) 7 2 ; * % $ $ $ % % % % $ 2 2 2 3 3 > 5 5 8 U ( Q.iXsXtX} r u r r , ",
"N W <.3.z.B.l.d.y.y.i.a.a.k.X.} 7 - % $ $ $ $ % % % % * % - % 2 > : : 5 = 6 8 E 3.<XsX0X^ w y y w S ",
"N W &.[ s.B.K.B.l.h.s.a.Z u.{ ` 6 - - X ; 2 ; > ; ; 4 9 7 4 ; : 3 : : 5 2 = 3 N ..<XdXsXR w y y t ;.",
"E D D u.l.g.l.B.~.B.l.i.M m D R S Y T R Y Y E E E E ..4.4.| E ~ T 8 4 5 5 : - 1 ) <XxXxX} w y r D -X",
"l D f.m.m.g.F n u.x.~.s.M n D X.0.$XQ.Y.Q.Q.Q.Q.Q.Q.;X X|.].[.>X0.E N 9 8 : > p _ >XxXvX:.w w r 3.fX",
"F u.l.u.u.l.a.k y n x.x.a.k l =.;X X'.{. X:X1X3X1X1XOX X X X4XqX<X3.Q Y G 8 9 T | -XsXxX5.w q e $XnX",
"u.l.l.u.u.u.l.i.u w l x.x.C s =.!.A.D.G.U. X X XE.E.E.U.E. X3X8X8X`.&.@.W N B Q | -XuXdX5.r q t >XnX",
"c.f.l.u.M t.p.s.x q y i.B.j.z z.S.o.Z.j.Z.'. XOX{.I.I.E.{.{.1X6X8X].*.] W W W ! @.-XuXsX4.u t T *XxX",
"f.f.l.f.t.b t.s.i.u r d y.~.x.S.C.C.Z.D.G.'.OX6X6X3X3X XOX X3X4X:XT.-.] ! E T _ @.-XsXsX5.u s Q.-X>X",
"l.g.g.p.M n k u.s.v y y g p.B.R.L.E.XXoX'.oX@X6XwXrXwX6X4X3X4X4X XT.G.$.] | ) &.| >XdXdX3.r { fXyX#X",
"l.g.j.l.i.M f k a.i.d y y g s.R.{.{. XOXXX}.@X@X6XqX4X|.Q.].3XeXOXE.G.$.] ] ] &.| ,XdXdX5.e L.nXcX0.",
"x.h.l.j.p.Z c f n a.F u r y l z.$.! ] 7.{.'.}. X].*.E a B ! I.3XOX'.F.$.C | &.] :.tXxXxX8.p [.nXcX{ ",
"l.h.l.b.d.y.n f k F a.l y r r s a 1 9 B *.'.}.T.] B 1 B T ! *.].OX X{.=.| -.T.I.7.yXuXtX:.a 0.uX<XS ",
"l.g.h.l.p.t.M x g h i.p.g r q t i 9 T U V ].6X X! 1 B Y _ &.| I.3XeXwX.X-.'.@X'.*.|.0.8.S p ) :.D t ",
"g.g.h.h.g.i.t.M v c r.h.i.u q t p 4 T 3.! {.rX4X-.! Q T 3.0.*.{.9XaXzXqX].'.'.oXR.L.D i , & < < t t ",
"d.d.d.f.f.s.s.k.a.p.f.l.l.' l V  .E ! 4.=.1XrX4X|.[.Q.4.Q.[.;XwXrXlXzXeX|.}.C.G.oXD.u q O O O O w r ",
"p.p.y.y.p.x.P.P.L.P.J.x.P.P.z.L.;XY.| $.5.9XlX9X4X9X4X|.|.4XrXaXaXrX6X'.'.9XA.C.oXz.t q O w O 0 r w ",
"y.r.r.y.' ` _ 3.6.3.3.5.5.3.5.Q.4X:XE.Z.U.wXlXrX9XrXwX5X6XwXrXrXhXeX'.I.T.6XoXOX XC q # w , O O w w ",
"r.r.r.r.' V H L +.+.>.+./ ,.<.6.].U.S.C.E.pXlXpX9X5X5X X'.}.@X@X@X XI.A.U.}.@X5X].B # # & & & , w & ",
"t.t.u.f.p.D H K L +.+.+.<.).).1.4.=.Z.C.OXrXrXrXwX3XOXOX'.'.G.G.'.'.-.Z.%.'.@X5XC + . X X o o e e o ",
"D.' a.x.p.` H K L P +.>.2.%X_.9.7.$.C.S.T.3X4X|.{. X3XOX'.G.%.Z Z %.%.'.-.-.7.! > + + + @ ; < , , o ",
"2X!.L.a.' z G H L P O.>.)._._.<XpX].$.I.] ] *.*.*.T.6X5X'.'.[ C [ Z.%.'.'.].B + + + + + X & ; < # @ ",
"$X$X$X' u.C B H J L P >.).&X*XaXfX>X7.].Y.V R 4.|.3XwX9X@X'.-.Z %.%.Z.'. X'.N + - + + + - ; ; , < , ",
"yX$XW.k.r.n a H H K K L ).&X_.uXfXpX>X[.;X..$.5.Y.:X6XeX5X}.F.%.%.Z.F.'.@X-.1 - * - X - - @ < # e u ",
"fX$X{ i.t.M a H H K K K >.).).-XiXyX;X[.Q.*.4.*.4.T.|. X@X X'.F.Z.F.%.'.'.=.@ @ - X X & , r u d g c ",
"2X$XF M r.F a G H K K K / ).).9.0.7.0.0.E p p 1 p V } *. X@X XG.'.%.Z.'.'.$.+ @ < O r u k h c c w.e.",
"k.F n t.r.M a 8 H H J K K >.1.).3.,.9.0.R < , 1 1 p B X.I.@XOX'.%.%.%.Z.'.$.# t u d k c w.e.w.w.e.r.",
"x b b b q.n s U H H H / / W >.1.@.@.@.Q.0.5...5.Q.T.'.'.'.'.'.'.%.%.Z C.R.[ d f n c c c w.w.e.e.e.e.",
"v v x c c n D { { ^ ^ } 3...3.9._./ Q 7.0.;X1X1X1X XG.`.%.Z.'.Z.%.Z C [ D.' k x n w.w.w.w.w.w.e.e.e.",
"M n m v v v l m D F D D z.W.;X,X1.N ! 5.=.*.5.L.5.] B C [ %.'.] Z C C $.C.s s D n w.w.w.w.w.e.e.e.w.",
"m n n v v x v m F n i.x.~./.>X*X/ 9 ..*.=.*.R a a R $.%.%.'.%.C C C C o.L.p < R ' i.c c w.w.w.w.w.q.",
"l k n n n k k k F J.K.^.K.~.*X%XJ B *.=.] T.4.Q ! 4.Q.T.-.$.C ] Z C Z %.A.a . ; B z.k.Z w.q.w.w.w.w.",
"d s d d k g n k.J.K.K.V.K.~.9._.O.W $.$. . ._ B B E | | C V ] %.$.Z %.%.%.s < @ + T !.P.d.c j c w.w.",
"d d u u l ' x.~.B.B.M.M.M.J.4.1.O.B ] [ $.] 1 ; ; @ > < 1 B $.I.Z.Z.%.%.[ V V B > H 7.~.H.x.p.b q.j ",
"u u u l ' B.K.m.m.M.M.M.M.x.&.#.L N R o.C.{ B + +       @ B =.'.S.Z.%.-.[ V ] &.N O.6.z.b.^.^.B.y.Z ",
"u u F l.K.K.V.M.v.v.v.v.v.m.{ / L N B $.%.[ V 1 .     . @ V $.Z.S.G.Z.C.Z C =.6.O.#.&.j.c.n.^.(.^.B.",
"d F l.K.V.M.V.M.M.M.v.v.v.m.k.T J N N | %.[ V p ; + . + 1 V C %.D.S.Z.Z.Z C -.@.#.<.6.j.v.v.n.V.(.(."
};
