/* XPM */
static char *mjalloul1673360449[] = {
/* columns rows colors chars-per-pixel */
"50 50 233 2 ",
"   c #16151C",
".  c #1A191E",
"X  c #0C0D12",
"o  c #1D1C24",
"O  c #1F1C2A",
"+  c #181821",
"@  c #1B1537",
"#  c #201F26",
"$  c #231F29",
"%  c #231C3C",
"&  c #1E212A",
"*  c #24222B",
"=  c #252228",
"-  c #2A2633",
";  c #2C2934",
":  c #29273A",
">  c #332E3C",
",  c #332B37",
"<  c #37323E",
"1  c #473338",
"2  c #52373C",
"3  c #7D383D",
"4  c #261E41",
"5  c #2A2446",
"6  c #2B254B",
"7  c #2D294B",
"8  c #292745",
"9  c #312B4E",
"0  c #372B43",
"q  c #2E3146",
"w  c #353242",
"e  c #3A3543",
"r  c #3A3649",
"t  c #2F2A53",
"y  c #2D2650",
"u  c #322C54",
"i  c #342B57",
"p  c #39335E",
"a  c #363656",
"s  c #3A3664",
"d  c #382F66",
"f  c #473948",
"g  c #563B46",
"h  c #463D53",
"j  c #523F55",
"k  c #673C43",
"l  c #433B65",
"z  c #3F465D",
"x  c #5B414B",
"c  c #494457",
"v  c #574957",
"b  c #4E404D",
"n  c #65454E",
"m  c #6B4449",
"M  c #784649",
"N  c #6A4A57",
"B  c #764E5B",
"V  c #7B4B57",
"C  c #76525A",
"Z  c #454766",
"A  c #574C64",
"S  c #4B536A",
"D  c #5C546B",
"F  c #534D73",
"G  c #4C5872",
"H  c #55557B",
"J  c #6A5267",
"K  c #755564",
"L  c #655B72",
"P  c #765367",
"I  c #566578",
"U  c #6A667C",
"Y  c #736877",
"T  c #73737F",
"R  c #853B4A",
"E  c #84474A",
"W  c #8A545A",
"Q  c #9A5352",
"!  c #985759",
"~  c #954A4F",
"^  c #A95C5D",
"/  c #B2505E",
"(  c #865A65",
")  c #9D5E63",
"_  c #955D66",
"`  c #825B71",
"'  c #915F78",
"]  c #A75C65",
"[  c #B65B67",
"{  c #B5546E",
"}  c #8D636F",
"|  c #9C646B",
" . c #9D6264",
".. c #896475",
"X. c #966977",
"o. c #AB6266",
"O. c #A3666B",
"+. c #AB666B",
"@. c #AD696C",
"#. c #A36366",
"$. c #B36B6C",
"%. c #B66869",
"&. c #BA716E",
"*. c #AD6D73",
"=. c #AB6C79",
"-. c #B46D74",
";. c #BA6E73",
":. c #B86A7C",
">. c #AB727A",
",. c #B57174",
"<. c #BA7175",
"1. c #B3727A",
"2. c #BB747B",
"3. c #BE7C7E",
"4. c #C25977",
"5. c #C16A6D",
"6. c #C1716E",
"7. c #D36C7F",
"8. c #C47B7C",
"9. c #CA797D",
"0. c #C57478",
"q. c #C36873",
"w. c #656888",
"e. c #766B87",
"r. c #726C95",
"t. c #6E7C90",
"y. c #7E7392",
"u. c #647C8A",
"i. c #7D76A2",
"p. c #88738E",
"a. c #9A748C",
"s. c #9F7287",
"d. c #847998",
"f. c #96738C",
"g. c #AD798D",
"h. c #A87586",
"j. c #BD7A82",
"k. c #B87887",
"l. c #AE7890",
"z. c #C37D83",
"x. c #CB7D81",
"c. c #C47E8B",
"v. c #CB7486",
"b. c #D57B88",
"n. c #C97D92",
"m. c #CC6E80",
"M. c #E0798E",
"N. c #758797",
"B. c #748D95",
"V. c #7D8DA1",
"C. c #7D97A7",
"Z. c #BC8189",
"A. c #A5839A",
"S. c #BA8599",
"D. c #8883A7",
"F. c #938AAB",
"G. c #9A8BAC",
"H. c #9787A8",
"J. c #8596A6",
"K. c #9D8EB2",
"L. c #9188B2",
"P. c #9D92B5",
"I. c #A494BB",
"U. c #A999BD",
"Y. c #A594B7",
"T. c #AB8CAC",
"R. c #88A1A6",
"E. c #968897",
"W. c #C48185",
"Q. c #CC8286",
"!. c #C4818A",
"~. c #CC838B",
"^. c #CD8A8F",
"/. c #D3838B",
"(. c #D3898C",
"). c #D18184",
"_. c #CC8992",
"`. c #CD8D9C",
"'. c #C68999",
"]. c #D48C94",
"[. c #D48D9B",
"{. c #DB8C9A",
"}. c #D68893",
"|. c #D5929D",
" X c #D9919B",
".X c #DF9093",
"XX c #D493A3",
"oX c #DA99AA",
"OX c #D89CB4",
"+X c #C793AB",
"@X c #E28FA7",
"#X c #DCA1B5",
"$X c #AA9AC3",
"%X c #A89BC6",
"&X c #B09EC4",
"*X c #A9A0C8",
"=X c #B4A3CC",
"-X c #B6A4C9",
";X c #B6A5D1",
":X c #BCACD5",
">X c #BDAED9",
",X c #BAA7D4",
"<X c #BEB1DB",
"1X c #AFA8D1",
"2X c #BFB6E1",
"3X c #C0AFDA",
"4X c #C2B3DD",
"5X c #C6BCDE",
"6X c #DBB9D8",
"7X c #C4B5E2",
"8X c #C6B9E4",
"9X c #CABBE5",
"0X c #CBBDE9",
"qX c #C7BCE8",
"wX c #E1B3D0",
"eX c #CDC2ED",
"rX c #CAC0E5",
"tX c #D1C2ED",
"yX c #DCC2E9",
"uX c #CFC4F1",
"iX c #D3C6F1",
"pX c #D6CAF4",
"aX c #D9CCF5",
"sX c #DACEF9",
"dX c #D7CDF9",
"fX c #DDD2FB",
"gX c #DDD3F8",
"hX c #E2D6FE",
"jX c #E5DAFE",
"kX c #E9DDFF",
"lX c #E4E0FF",
"zX c #ECE1FE",
"xX c #F0E4FF",
/* pixels */
"hXhXhXhXhXhXhXhXhXjXjXjXjXjXjXjXjXjXfXlXjXhXhXjXjXjXjXjXjXjXjXjXjXjXjXhXjXjXgXkXjXjXjXlXjXhXgXjXjXjX",
"fXhXhXhXhXhXhXhXjXjXhXjXfXjXjXjXjXfXjXjXhXgXjXjXjXjXjXjXjXjXjXjXjXlXjXjXjXjXjXjXjXgXjXjXjXjXjXjXjXhX",
"hXhXhXhXhXhXhXjXhXjXjXjXjXjXjXjXjXjXfXlXhXhXjXjXjXlXjXjXlXjXjXjXjXjXjXjXjXjXjXkXlXjXjXjXjXjXjXjXjXjX",
"hXhXhXhXhXhXhXhXjXhXjXjXjXjXjXlXjXfXjXjXhXgXjXkXlXjXkXjXjXjXjXjXjXjXkXhXjXjXjXlXjXjXjXjXjXjXgXjXjXhX",
"hXhXhXjXhXhXhXjXhXjXjXjXjXjXjXkXjXjXjXjXhXhXjXlXjXjXlXjXjXkXjXjXlXhXkXkXjXjXjXjXjXjXhXkXhXkXjXjXjXjX",
"hXhXhXhXhXjXhXhXjXjXjXjXjXjXjXkXlXfXjXjXhXhXjXjXjXkXkXkXjXlXjXjXjXjXjXjXjXkXjXjXjXjXkXhXkXjXjXjXjXjX",
"jXhXhXhXhXhXjXjXjXjXjXjXjXjXjXjXjXjXjXhXhXhXjXjXlXkXjXjXjXjXjXjXjXjXkXkXjXjXjXlXlXkXkXkXjXjXjXjXjXjX",
"hXhXhXjXhXhXhXjXjXjXhXjXjXjXjXjXjXjXjXhXjXhXjXjXjXjXlXjXjXjXjXlXjXkXjXjXjXzXjXlXjXkXkXhXjXjXjXjXjXjX",
"hXhXjXhXhXhXjXjXjXjXjXjXjXjXjXjXjXlXjXgXhXhXgXjXlXzXjXjXjXjXjXjXjXjXkXlXkXjXjXjXjXzXjXjXjXjXkXhXjXjX",
"hXhXhXjXjXhXhXjXhXjXjXhXjXhXjXjXgXdXfXlXjXhXlXjXiXhXlXjXlXjXjXjXjXkXjXjXjXjXjXjXjXjXjXjXjXjXkXkXjXjX",
"hXhXjXjXkXhXhXhXjXjXhXhXhXhXhXaX=Xe.A y.p.D L A f A d.:XjXzXlXjXjXjXjXjXkXjXjXkXjXjXjXjXjXjXkXhXhXjX",
"hXhXhXhXjXhXhXhXhXjXhXyXsXhX9Xe.A A > ; ; ; = O     ; f v p.aXzXhXkXlXjXjXzXjXkXjXzXjXkXjXkXkXkXjXjX",
"hXhXjXhXjXhXhXfXfXfXfXsXsXpXd.0 < e r - ; ; ; # * * * * e e c <XzXhXjXjXkXjXkXzXjXkXjXkXjXjXkXjXgXkX",
"hXhXhXhXjXhXfXgXsXsXaXaXaX4XA , e w   X O ; * & O o + o * c e c rXzXjXjXjXjXkXjXjXjXjXkXkXjXhXkXjXjX",
"hXkXhXhXhXhXgXgXyXaXaXyX9X3XY ; < < o * o w > *   o & = o r c ; Y zXjXjXjXjXjXjXjXkXjXjXkXjXjXjXjXjX",
"hXhXjXhXhXhXgXaXgXyX0X0X0XH.0 , > , * e + - - . & = # & o w c c , 5XzXjXkXjXjXjXjXkXkXjXjXkXkXkXjXjX",
"jXhXhXhXhXhXaXaXpXyX5X3X4XL ; ; ; & . ; c v e ; q w o + * e c h r e.kXjXjXjXjXjXjXjXjXjXhXkXkXjXjXjX",
"hXhXjXhXhXhXaXpXtX9X4X3XG.< ; * . . 1 n m N ; j x j f 2 V f q f h h =XzXjXjXjXjXjXzXkXkXkXjXjXhXjXjX",
"hXhXhXhXaXaXaXiXtX5X:X,Xp.$ #   = M @.&.<.#.W z.~.z.!.Q.W.W b < > e d.xXhXjXjXzXjXjXjXjXkXkXkXhXjXjX",
"hXhXhXhXhXaXaXtX9X4X,X-XG.r     n @.$.&.9.(. X X|.|. X(.).(.3._ e r y.xXhXhXjXjXjXjXkXkXhXkXkXkXjXjX",
"hXhXhXhXgXaXaXyX9X4X;X&XF., + ; } @.%.6.8.Q.].|.|. X X(.).x.W.W.J > d.zXjXhXjXjXkXjXkXkXjXjXjXjXjXjX",
"hXhXhXgXhXaXiX0X8X3X-XU.Y.b & b  .O.%.6.9.).].|.|. X[.(.).W.z.z.' w d.xXhXjXjXjXjXjXjXkXkXjXjXkXjXkX",
"jXhXgXgXaXaXiXeX8X3X-XY.I.c & g | @.%.&.0.).[.oXoXoX X}.(.b.x.!.X.< H.xXhXjXjXjXjXjXjXjXjXhXkXjXkXjX",
"jXhXgXgXhXaXiXtX8X:X=XY.Y.v * g >.@.%.0.).]. X#X#X#XOXXX!.>.>.~.g.e 4XzXgXjXjXjXjXjXjXjXkXjXkXjXjXjX",
"hXfXfXfXgXaX0X0X7X3X=XI.U.e.* j h.O.) _ X.h.'.oXXXXXs.J P ` P s.l.J dXfXfXjXjXjXjXjXjXjXjXkXjXjXjXjX",
"hXjXhXfXsXaXaXyX9X3X=XU.Y.K.e f l.( f n N g W W._._.) E _ @.2.h.S.p.~.OXlXjXlXjXjXjXjXjXjXjXjXjXjXjX",
"hXhXfXsXsXsX0X0X7X,X;X%XY.T.Y f l.( _ W B ( Q ^ }.9.o.' g ` ) (.'.s.m.OXlXjXjXfXjXjXjXjXjXjXjXjXjXjX",
"hXhXhXfXsXsXsX0X9X>X=X&Xl./ { g h.1.~ P N a.:.Q /.9.z.k.=.=.z.^.`.g.M.wXlXgXjXjXgXjXjXjXjXjXjXjXjXjX",
"hXhXhXfXsXsX0X0X7X3X=X%Xl.[ { M a.-.+.) [ n.k.^ /.b.z.XXOXXX{.[.`.l.b.6XkXkXjXjXkXkXhXkXjXjXjXjXjXjX",
"hXfXhXfXfXsXsX0X9X3X=X$X%X0.q.3 f.k.j.v./.~.%.] n.b.x./.[.oX{.[.+XS.M.6XkXyXjXhXhXhXjXjXjXjXjXhXjXjX",
"fXhXhXfXfXsX0X0X0X3X&X%X$Xl.m.~ ..h.2.x.v.9.-.m.@X@X/.[.{.{.}.(.S.h.9.wXkXhXjXkXjXkXhXjXjXjXjXjXjXjX",
"hXfXfXfXfXfXsX0XqX>X;X%XP.l.q.~ P s.-.9.x.].k.) n.[.-.].oX{.}.[.l.=.{.yXjXhXhXhXhXhXhXjXhXjXjXjXjXjX",
"fXhXhXfXsXsXyXsX0X7X;XI.T.K.k.[ m f.*.2.x.].9.E ` f.V b..X X(.].X.1.#XlXlXfXlXjXjXjXjXjXjXjXfXjXjXfX",
"fXfXhXfXsXsX0X0X9X7X,X$XK.L.A.4.E K >.2.9.6.] 2 N N f P | W.(.Z...:XlXgXfXfXjXfXfXjXjXjXjXjXlXfXjXjX",
"fXfXsXsXsXsXsX0X0X7X,X$XI.G.G.l.a.L } 1.&.N 2 2 { :.k k n ( W.X.Y rXjXfXlXjXjXfXlXfXjXfXjXjXjXjXfXjX",
"fXfXfXhXfXsXsX0X0X7X,X;XI.P.F.L.G.Y v O.#.B M R / 4.4./ #.*.*.K p.dXfXjXfXfXjXjXjXjXjXjXjXjXjXfXjXjX",
"fXfXfXhXsXsXaX0X0X7X>X=X%XY.K.H.P.p.N J @.<.o.^ m.v.v.v.Q.(.>.} U.kXfXhXhXhXfXjXjXfXfXjXfXjXjXfXjXhX",
"sXfXfXfXfXsXaXaX0XqX<X,X*XI.K.G.G.a.N K  .%.6.&.) B _ 8.8.W.Z.X.+XhXhXhXfXhXjXlXfXjXjXjXlXjXjXjXfXjX",
"fXfXfXfXsXsXyX0X0X0X7X>X=X$XY.G.F.a.E C } @.o.6.q.'.[./.Q.W.X.2._.hXhXfXjXfXfXfXjXfXlXjXjXfXfXjXfXjX",
"sXsXfXfXfXsXsXaXiX0X7X>X;X%XI.K.K.a.Q E x } <.&.:.l.k.j.W.} | ).2.D.jXkXfXfXfXjXfXjXfXjXfXjXjXfXjXfX",
"fXfXfXfXfXfXdXiXiX0XqX<X;X%X%XP.F ( ^ Q 3 2 C V C ( C ( x N x.8.~.C w.2XpXzXzXjXfXjXjXfXjXfXjXfXjXhX",
"dXdXfXfXdXgXdXpXiXuX8X>X;X1X&Xw.O ) o.^ Q M 1 = , < ; , x 2.~.W.z.*.8 d l r.1XfXxXfXhXjXfXjXjXfXfXhX",
"fXfXfXdXfXfXdXpXuXqX8X8X:XL.F 6 f ] o.&.o.! Q E k m W  .8.W._.Q.z.;.h s p t u J.*XfXlXgXfXjXfXjXhXfX",
"dXdXfXdXfXdXpXuX0X0X8XL.H 5 y 4 k Q %.<.,.! #.@.<.|.|.^.W.8.^.Q.x.;.e.C.C.G l I @ H dXlXjXfXfXfXgXhX",
"dXdXdXgXdXpXeXeXtX%XF 9 8 7 5 G Y ~ $.&.2.o.o.*.-.XX_.!.2.W.^.W.z.,.h s Z u p y 7 4 w.P.dXkXhXfXfXfX",
"dXdXpXpXiXeXeXeXD.u 7 9 8 7 6 u.T Q $.,.z.2.o.1.+.,.8.j.j.~.~.3.x.| 8 d y y u p 6 6 p w.Z L.tXkXjXfX",
"pXpXuXuXuXuX8XJ.a u 9 8 7 % S G r  .o.,.j.c.k.,.2.;.z.!.z.~.j.3._.B 6 p u u u p 6 7 4 t.Z 6 l i.2XhX",
"pXuXuXpX>XD.N.z B.Z 5 8 7 % I 9 6 } ,.*.,.!.j.-.2.!.!.j.Z.W.j.c.j.0 t u 7 u 5 s 7 6 4 I t.i p u i r.",
"eXuX2XL.w.z 8 5 B.z 8 : 4 q Z 6 7 U j.2.*.2.!.2.-.,.,.2.~.z.j.`.A.c u i 9 t 5 u t 9 % S V.9 p p p p ",
"2X%Xt.u.z 5 5 u B.q 8 5 4 G Z y 6 S E.k.1.-.W.j.,.,.-.3.!.z._.`.I C.H 6 u i 5 8 i u % a R.J.V.B.J.N."
};
