/* XPM */
static char *result[] = {
/* columns rows colors chars-per-pixel */
"50 50 236 2 ",
"   c #3E4735",
".  c #414B37",
"X  c #47523B",
"o  c #4B563E",
"O  c #4B573F",
"+  c #4B563F",
"@  c #4B573E",
"#  c #49543E",
"$  c #464F3B",
"%  c #404837",
"&  c #3D4535",
"*  c #424C38",
"=  c #4A553D",
"-  c #4E5A40",
";  c #4F5C41",
":  c #4F5C42",
">  c #4E5C42",
",  c #4F5D42",
"<  c #4C5940",
"1  c #48523D",
"2  c #404937",
"3  c #3C4535",
"4  c #3D4736",
"5  c #434E3A",
"6  c #4E5C41",
"7  c #556345",
"8  c #566547",
"9  c #566647",
"0  c #556647",
"q  c #556547",
"w  c #576748",
"e  c #526144",
"r  c #4B583F",
"t  c #414B38",
"y  c #3C4435",
"u  c #3D4737",
"i  c #444F3B",
"p  c #505F43",
"a  c #596A49",
"s  c #596B49",
"d  c #586A49",
"f  c #5A6B4A",
"g  c #546446",
"h  c #4D5A40",
"j  c #414C39",
"k  c #3B4435",
"l  c #505E43",
"z  c #566747",
"x  c #586949",
"c  c #596A4A",
"v  c #4F5E43",
"b  c #576949",
"n  c #586849",
"m  c #546346",
"M  c #4D5940",
"N  c #424C39",
"B  c #3D4637",
"V  c #4F5E42",
"C  c #586948",
"Z  c #444E3B",
"A  c #596B4A",
"S  c #424D39",
"D  c #576847",
"F  c #5A6B49",
"G  c #596B48",
"H  c #596A48",
"J  c #5A6C4A",
"K  c #556546",
"L  c #4D5B40",
"P  c #576747",
"I  c #586A48",
"U  c #546445",
"Y  c #3D4636",
"T  c #4C593F",
"R  c #526043",
"E  c #546345",
"W  c #536344",
"Q  c #536243",
"!  c #536244",
"~  c #505D42",
"^  c #4A563E",
"/  c #3D4635",
"(  c #404A37",
")  c #47523C",
"_  c #4C573E",
"`  c #4D593F",
"'  c #4C593E",
"]  c #4C583E",
"[  c #4C583F",
"{  c #47503B",
"}  c #3F4836",
"|  c #444D39",
" . c #46503A",
".. c #47503A",
"X. c #46503B",
"o. c #464E39",
"O. c #434B38",
"+. c #3F4736",
"@. c #3E4836",
"#. c #434C38",
"$. c #454F39",
"%. c #464F39",
"&. c #454D39",
"*. c #434A37",
"=. c #49543D",
"-. c #4D5A3F",
";. c #4E5B40",
":. c #556545",
">. c #566746",
",. c #566646",
"<. c #505E42",
"1. c #505F42",
"2. c #5A6C49",
"3. c #5A6B48",
"4. c #44503B",
"5. c #434D39",
"6. c #44503A",
"7. c #515F42",
"8. c #586847",
"9. c #5A6A48",
"0. c #5B6C4A",
"q. c #444F3A",
"w. c #5B6C49",
"e. c #5A6A49",
"r. c #566546",
"t. c #3E4736",
"y. c #516042",
"u. c #586947",
"i. c #5B6D49",
"p. c #5B6D4A",
"a. c #4F5C40",
"s. c #45513A",
"d. c #516143",
"f. c #586A47",
"g. c #5A6D49",
"h. c #3E4835",
"j. c #45503A",
"k. c #576846",
"l. c #434D38",
"z. c #3D4534",
"x. c #444F39",
"c. c #4E5C40",
"v. c #546344",
"b. c #566545",
"n. c #566645",
"m. c #576645",
"M. c #536143",
"N. c #434C37",
"B. c #3E4634",
"V. c #424B37",
"C. c #49543B",
"Z. c #4D583E",
"A. c #4E5A3E",
"S. c #4E5A3F",
"D. c #48513B",
"F. c #414A36",
"G. c #3F4735",
"H. c #454E38",
"J. c #464E38",
"K. c #454D38",
"L. c #434B37",
"P. c #404835",
"I. c #3D4634",
"U. c #404936",
"Y. c #49523B",
"T. c #49533A",
"R. c #49533B",
"E. c #48513A",
"W. c #4C573D",
"Q. c #505D40",
"!. c #515E41",
"~. c #515F41",
"^. c #515E42",
"/. c #49543C",
"(. c #3E4534",
"). c #3F4835",
"_. c #576746",
"`. c #546244",
"'. c #46513A",
"]. c #536142",
"[. c #596A47",
"{. c #5C6D49",
"}. c #5B6C48",
"|. c #5C6E4A",
" X c #444D38",
".X c #5D6F4A",
"XX c #4F5D40",
"oX c #526143",
"OX c #5C6E49",
"+X c #576745",
"@X c #526142",
"#X c #5B6E49",
"$X c #5A6C48",
"%X c #444E39",
"&X c #5B6D48",
"*X c #5D6E49",
"=X c #586846",
"-X c #505E41",
";X c #444E38",
":X c #586946",
">X c #596947",
",X c #596847",
"<X c #546444",
"1X c #434D37",
"2X c #3E4633",
"3X c #49533C",
"4X c #47523A",
"5X c #404A35",
"6X c #3D4533",
"7X c #434A35",
"8X c #454C37",
"9X c #495039",
"0X c #4B523B",
"qX c #4A533B",
"wX c #4B533B",
"eX c #4B543B",
"rX c #4A523A",
"tX c #485039",
"yX c #454C36",
"uX c #51553A",
"iX c #52553A",
"pX c #53573B",
"aX c #54573B",
"sX c #53573C",
"dX c #54573C",
"fX c #53583B",
"gX c #53583C",
"hX c #53563B",
"jX c #595B3C",
"kX c #595A3C",
"lX c #585A3C",
"zX c #585A3D",
"xX c #595A3D",
"cX c #5A5A3D",
"vX c #5A5B3C",
"bX c white",
/* pixels */
"  . X o o O + + + + + + + + + + + + + + + + + + + + + + + + + + + + + + + + + + + + + O O @ # $ % & ",
"  * = - ; : : > > > > > > > > > > > > > > > > > > > > > > > > > > > > > > > > > > > : : , ; < 1 2 3 ",
"4 5 6 7 8 9 0 0 0 0 0 0 q q q q q 0 0 0 0 0 0 0 q q q q 0 0 0 0 0 0 0 0 0 0 0 0 0 0 9 9 w 0 e r t y ",
"u i p w a s a d d d d d d d d d d d d d d d d d d d d d d d d d d d d d d d d d d d a a f d g h j k ",
"u i l z x d x x x x x x x x x x x x x x x x x x x x x x x x x x x x x x x x x x x x x x c x g h j k ",
"u i v z b d x x x x x x x x x x x x x x x x x x x x x x x x x x x x x x x x x x x x x x c n m M N y ",
"B i V z C d x x x x x x x x x x x x x x x x x x x x x x x x x x x x x x x x x x x x x x c n m h N y ",
"B Z V z C d x x x x x x x x x x x x x x x x x x x x x x x x x x x x x x x x x x x x x x c x g h N 3 ",
"B i V z C a C C C C C C C C C C C C C C C C C C C C C C C C C C C C C C C C C C x x x x A x g h S 3 ",
"u i p D s F G H H H H H H H H H H H H H H H H H H H H H H H H H H H H H H H H H a a a a J a K L S 3 ",
"u i l P a s H I I I I I C C C C C C C C C C C I I I I I I C C C C C C C C C C C C C C H s x U h * 3 ",
"Y S T R E E W Q Q Q Q Q Q ! ! ! ! ! Q Q Q Q ! ! ! ! ! ! ! ! ! Q Q Q ! ! ! ! ! ! ! ! ! ! E ! ~ ^ t & ",
"/ ( ) _ ` ` ' ] ] ] ] ] ] [ [ [ [ [ ] ] ] ] ] [ [ [ [ [ [ [ [ ] ] ] [ [ [ [ [ [ [ [ [ ] T [ = { 2 & ",
"3 } |  ..... . . . . . . . .X.X. . . . . . . . .X.X.X.X.X.X. . . . . .X.X.{ { { X. . . ... .o.O.+.& ",
"3 @.#.$.%.$.$.$.$.$.$.$.$.$.$.$.$.$.$.$.$.$.$.$.$.$.$.$.$.$.$.$.$.$.$.$.$.%.%.%.$.$.$.$.$.o.&.*.+.& ",
"Y t =.-.;.;.L L L L L L L L L L L L L L L L L L L L L L L L L L L L L L ;.;.;.;.;.L L L ;.- _ X 2 & ",
"B 5 ; :.>.D >.>.>.>.>.>.>.>.>.>.>.>.>.>.>.>.>.>.>.>.>.>.>.>.>.>.>.>.>.>.>.>.>.>.>.>.>.>.D ,.! T * 3 ",
"u i <.P H G H I I I I I I I I I I I I H H H H H H H I I H H H H H H H I I I I I I I I H G I :.L S 3 ",
"u i 1.D G 2.G G G G G G G G G G G G G 3.3.3.3.3.3.G G G G 3.3.3.3.3.G G G G G G G G H H 2.H :.;.S 3 ",
"u 4.1.D G F G H H H H H H H H H H H H H H H H H H H H H H H H H H H H H H H H H H H H H 2.G :.;.S 3 ",
"u 4.1.D H F H H H H H H H H H H H H H H H H H H H H H H H H H H H H H H H H H H H H H H 2.H :.;.5.& ",
"u 4.1.D H F H H H H H H H H H H H H H H F F F H H H H H H H H H H H H H H H H H H H H H 2.H :.;.5.& ",
"4 6.1.D H F H H H H H H H H H H H H H F F F F H H H H H H H H H H H H H H H H H H H H H 2.H :.;.5.& ",
"4 6.7.8.H F F F F F F F F F F F F F F F F F F F F F F F F F H H H H H H H H H H H F H H 2.H :.;.5.& ",
"4 6.7.8.9.F F F F F F F F F F F F F F F F F F F F F F F F F F H H H H H H H H H F F F G 2.H :.;.S 3 ",
"4 6.7.8.3.F a a H H H H H H H H H H H H H H H H H H H H H F F F F F F F F F F F F F F F 0.a K ;.S 3 ",
"4 q.7.8.3.w.a a H H H H H H H H H H H H H H H H H H H H H F F F F F F F F F F F F F F F 0.e.r.;.5.& ",
"4 q.7.8.3.w.F F 3.3.3.3.F F F F F F F F F F F F F 3.3.3.3.F F F F F F F F F F F F F F F 0.e.r.;.5.& ",
"t.6.y.u.2.i.w.F 3.3.3.F F F F F F F F F F F F F F F 3.3.F F F F F F F F F F F F F F F w.p.F ,.a.5.& ",
"@.s.d.f.g.i.w.w.w.w.w.w.w.w.w.w.w.w.w.w.w.w.w.w.w.w.w.w.w.w.w.w.w.w.w.w.w.w.w.w.w.w.w.w.p.2.,.a.5.& ",
"h.j.1.k.G 3.H H H H H H H H H H H H H H H H H H H H H H H H H 9.9.9.9.H H H H H H H H G 2.H :.;.l.z.",
"  x.c.v.b.,.n.n.n.n.n.n.n.n.n.n.n.n.n.n.n.n.n.n.n.n.n.n.n.n.n.n.m.m.n.n.n.n.n.n.n.n.n.,.>.r.M.] N.z.",
"B.V.C.Z.A.S.S.S.S.S.S.S.S.S.S.S.S.S.S.S.S.S.S.S.S.S.S.S.S.S.S.S.S.S.S.S.S.S.S.S.S.S.S.S.;.S._ D.F.B.",
"z.G.N.H.J.J.o.o.o.o.o.o.o.o.o.o.o.o.o.o.o.o.o.o.o.o.o.o.o.o.o.o.o.o.o.o.o.o.o.o.o.o.o.o.o.o.K.L.P.B.",
"I.U.%.Y.T.R.R.R.R.R.R.R.R.R.R.R.R.R.R.R.R.R.R.R.R.R.R.R.R.R.R.R.R.R.R.R.R.R.R.R.R.R.R.R.R.Y.E.H.P.B.",
"  l.W.Q.!.~.~.~.~.~.~.~.~.~.~.~.~.~.~.~.~.~.~.~.~.~.~.~.~.~.~.~.~.~.~.~.~.~.~.~.~.~.~.7.7.^.;./.V.(.",
").$.Q.b._._._._._._._._._._._._._._._._._._._._._._._._._._._._._._._._._._._._._._._._.8.P `.` #.z.",
").'.].[.w.{.w.w.w.w.w.w.w.w.w.w.w.w.w.w.w.w.w.w.w.w.w.w.w.w.w.w.w.w.w.w.w.w.w.w.w.w.}.{.|.w._.a. Xz.",
"} '.Q 3.i.|.{.{.{.{.{.{.{.{.{.{.{.{.{.{.{.{.{.{.{.{.{.{.{.{.{.{.{.{.{.{.{.{.{.{.{.{.{.{..X{.k.XX Xz.",
"} '.oX[.w.i.}.}.}.}.}.}.}.}.}.}.}.}.}.}.}.}.}.}.}.}.}.}.}.}.}.}.}.}.}.}.}.}.}.}.}.}.}.}.OX}.+Xa.l.z.",
"} '.@X[.2.i.}.}.}.}.}.}.}.}.}.}.}.}.}.}.}.}.}.}.}.}.}.}.}.}.}.}.}.}.}.}.}.}.}.}.}.}.}.}.#X$X+Xa. Xz.",
"@.s.@X[.}.i.}.}.}.}.}.}.}.}.}.}.}.}.}.}.}.}.}.}.}.}.}.}.}.}.}.}.}.}.}.}.}.}.}.}.}.}.}.}.#X$X+Xa.| & ",
"t.j.@X[.w.{.}.}.}.}.}.}.}.}.}.}.}.}.}.}.}.}.}.}.}.}.}.}.}.}.}.}.}.}.}.}.}.}.}.}.}.}.}.}.OX}.+XXX%X/ ",
"t.j.oXH w.{.}.}.}.}.}.}.}.}.}.}.}.}.}.}.}.}.}.}.}.}.}.}.}.}.}.}.}.}.}.}.}.}.}.}.}.}.}.}.OX&X_.XX%XB.",
"@.s.oX3.OX*X{.{.{.{.{.{.{.{.{.{.{.{.{.{.{.{.{.{.{.{.{.{.{.{.{.{.{.{.{.{.{.{.{.{.{.{.{.{..X{.=X-X;XB.",
"h.x.-Xn.:X>X,X,X,X,X,X,X,X,X,X,X,X,X,X,X,X,X,X,X,X,X,X,X,X,X,X,X,X,X,X,X,X,X,X,X,X,X,X,X>X8.<X-.1X2X",
"I.. 3X] -.-.S.S.S.S.S.S.S.S.S.S.S.S.S.S.S.S.S.S.S.S.S.S.S.S.S.S.S.S.S.S.S.S.S.S.S.S.S.S.;.-.@ 4X5X6X",
"7X8X9X0XqXqXwXwXwXwXwXwXwXwXwXwXwXwXwXwXwXwXwXwXwXwXwXwXwXwXwXwXwXwXwXwXwXwXwXwXwXwXwXwXeXeXrXtXyX7X",
"uXiXpXaXpXsXpXpXpXpXpXpXpXpXpXpXpXpXpXpXpXpXsXsXdXdXdXdXdXdXpXpXpXpXpXpXpXpXpXpXpXpXpXpXfXgXsXhXiXiX",
"jXkXkXkXkXlXlXlXlXlXlXlXlXlXlXlXlXlXlXlXlXlXlXzXxXxXcXcXxXkXlXlXlXlXlXlXlXlXlXlXlXlXlXlXlXlXzXxXjXvX"
};