/* XPM */
static char *_88d21cc024e4da7f253faf231ec67d3O19Z4i0w2aHf78Cp[] = {
/* columns rows colors chars-per-pixel */
"240 6 11 1 ",
"  c #DADADA",
". c #DBDADA",
"X c #DADBDB",
"o c #DCDBDB",
"O c #DBDCDB",
"+ c #DCDCDB",
"@ c #DBDBDC",
"# c #DDDBDC",
"$ c #DBDCDC",
"% c #DEDDDD",
"& c #DDDEDE",
/* pixels */
"&&&+&&&&&&o&&&&&&&+&+&&&&&&&&&o&&&+o&+&&#o&&&&&&o&&&++&&&&&&&o&&&&&o+&&&&+&&&&#&o&&&&+&%&&%&o&&&&&+&&&&&&&o&&&&&&&+%+&&&&&&&&&#&&&+o&+&&oo&&&&&&o&&&++&&&&&&&o&&&&&o+&&&&+&&&&#&o&&&&+&%&&%&o&&&&&+&&&&&&&o&&&&&&&+%+&&&&&&&&&#&&&+o&+&&oo&&&&&&",
"&#&&&+o&&&o&+oo&#&&+&&&oo&o&o&+&&&&&&&o&&&#++&o&+&&+&&&&o&o&&&&o&o&&&&+&%o&oo&o&&&oo&&&&o&o&&&o&&o&&o&o&&&o&+oo&#&&+&&&o+#o&o&+&&&&&&&&&&&oo+&o&+&&+&&&&o&o&&&&o&o&&&&+&%o&oo&o&&&oo&&&&o&o&&&o&&o&&o&o&&&o&+oo&#&&+&&&o+#o&o&+&&&&&&&&&&&oo+&o&",
"++&#o&o&oooo&&o++&o&&oooo&o&&#o&O+ooo&o&++&#&+oo+&o#&oooo&Xooo&&o&oo&ooo&&&o+&o#&oooo++oo&+&&oooo&oXo&o&oo+o&&o++&+&&ooo&&+&&#o&O+ooo&o%++%#&Ooo+&o#&oooo&Xooo&&o&oo&ooo&&&o+&o#&oooo++oo&+&&oooo&oXo&o&oo+o&&o++&+&&ooo&&+&&#o&O+ooo&o%++%#&Ooo",
"&XXooooooXooooo+oooooooo&oooo##o+oXo+oo+#oo&oooo+oo&oo&o+oooooooo&oo+ooooooXo#++oXoooo&o&oooOoooo+o&ooooXooXooo+oo#ooooooo+#X##o+Xoo+oo+#o#&oooo+oo&oo&o+oooooooo&oo+ooooooXo#++oXoooo&o&oooOoooo+o&ooooXooXooo+oo#ooooooo+#X##o+Xoo+oo+#o#&oooo",
"oXXoooXoXXoooXXXoXXooXXXoooXoo+XXoX.oXXo#XooXoXXXXXooXoX.XoXooooXoXoXoXooXXooXoXXXXoXooXoooXoooXXooXoXoXXoXoXXoXXoooXooXoXXoXX+oXXo.XXoX#XooXoXXXXXooXoX.XoXooooXoXoXoXooXXooXoXXXXoXooXoooXoooXXooXoXoXXoXoXXoXXoooXooXoXXoXX+oXXo.XXoX#XooXoXX",
"oXoXoXXXoXXXXoXXXoXXXooXXXXXXXoXoXoXXXoXXoXXXXXXXoXXoooXoo.XXXXXXXoXXXXoXoXoXXXXXoXXXoXXXoXXoXXooXXXooXo.XXooXXoXXXXXXXoooXXoXXXoXXXoXoXXXXXXXoXXoXXoooXoo.XXXXXXXoXXXXoXoXoXXXXXoXXXoXXXoXXoXXooXXXooXo.XXooXXoXXXXXXXoooXXoXXXoXXXoXoXXXXXXXoX"
};
