/* XPM */
static char *_aa6b50721854e9ada6557bff2f4cbc2snIU5VZy1gEXPgaw[] = {
/* columns rows colors chars-per-pixel */
"50 50 132 2 ",
"   c #03030E",
".  c #0B0B0E",
"X  c #030214",
"o  c #0C0C11",
"O  c #02021C",
"+  c #0B0B1E",
"@  c #0F1012",
"#  c #111113",
"$  c #1A1A17",
"%  c #15151C",
"&  c #1B1B1C",
"*  c #010124",
"=  c #0B0B25",
"-  c #01012C",
";  c #08082D",
":  c #151523",
">  c #1C1C24",
",  c #13142B",
"<  c #17182F",
"1  c #1B1B2D",
"2  c #010133",
"3  c #01013C",
"4  c #0D0D3A",
"5  c #141536",
"6  c #171835",
"7  c #1C1C32",
"8  c #11113C",
"9  c #17183D",
"0  c #202022",
"q  c #2C2C2F",
"w  c #232334",
"e  c #292A33",
"r  c #272738",
"t  c #010243",
"y  c #0C0D44",
"u  c #01014C",
"i  c #070848",
"p  c #0C0C4C",
"a  c #121343",
"s  c #191947",
"d  c #11124C",
"f  c #17184B",
"g  c #010253",
"h  c #0B0C55",
"j  c #01025B",
"k  c #0B0C5B",
"l  c #0F1056",
"z  c #0F125E",
"x  c #111253",
"c  c #11135B",
"v  c #010363",
"b  c #0B0D62",
"n  c #01036B",
"m  c #0B0E6B",
"M  c #101265",
"N  c #020373",
"B  c #020474",
"V  c #010476",
"C  c #020576",
"Z  c #060871",
"A  c #060973",
"S  c #0B0E73",
"D  c #0C0E71",
"F  c #010379",
"G  c #01037A",
"H  c #020478",
"J  c #020479",
"K  c #02047A",
"L  c #02047C",
"P  c #02047E",
"I  c #02047F",
"U  c #06097C",
"Y  c #070A7C",
"T  c #06097E",
"R  c #020480",
"E  c #020481",
"W  c #020581",
"Q  c #020485",
"!  c #020585",
"~  c #010487",
"^  c #020587",
"/  c #060A80",
"(  c #060984",
")  c #080B84",
"_  c #020588",
"`  c #02058A",
"'  c #02058B",
"]  c #02068B",
"[  c #02058C",
"{  c #02068C",
"}  c #02058E",
"|  c #02068F",
" . c #090C8C",
".. c #010591",
"X. c #030690",
"o. c #010592",
"O. c #020692",
"+. c #020693",
"@. c #020694",
"#. c #020697",
"$. c #080C93",
"%. c #030798",
"&. c #020699",
"*. c #02079A",
"=. c #03079A",
"-. c #03079B",
";. c #02069D",
":. c #05099B",
">. c #03089E",
",. c #0307A0",
"<. c #0307A1",
"1. c #0307A2",
"2. c #0308A2",
"3. c #0308A5",
"4. c #0308A6",
"5. c #0308A7",
"6. c #0307A8",
"7. c #0308A8",
"8. c #050AAA",
"9. c #0408AC",
"0. c #050AAD",
"q. c #1114AB",
"w. c #0409B3",
"e. c #080DB5",
"r. c #040ABA",
"t. c #090EB9",
"y. c #1619B3",
"u. c #050BC3",
"i. c #0E13C1",
"p. c #0F15C6",
"a. c #060DD5",
"s. c #191ED4",
/* pixels */
"m F V V V V V K V V J V V V V V V N N n n h q M V V V V V N n N n x e M F V K V V V n n h f K I K z ",
"T ..{ ` ~ { { ~ ^ ~ ~ ^ _ W ^ ^ W J J N v t # m ` ` { { +.~ K V N t # S %...%.@.%.@.` V i t %.{ ` g ",
"/ ~ K I I R V I ~ I n I n N N J K n n j g 2 # m { ` R R ~ K N K n 2 o S 3.5.1.3.7.2.2.~ g t @.` K 3 ",
"T R K K V N n N R K N n n n n n n j g u u 3 @ m ` I R I N n n j g - # S 1.;.7.0.2.%.~ V u 2 V V n - ",
"T R R ..` N N N ` ~ I N N n j v n v j g u 2 # m ] ` ~ N v n n j u 2 @ S 2.;.i.t.%.%.I n u 2 K j g 2 ",
"Y ` { :.%.{ R V ` ] I N n j j j n n v g g 2 # m ..Y V N n N V v g - # S 1.2.>.2.:.@.K n u 3 n g u 2 ",
"T ~ I { @.~ K n N V V K j j n j j n g g u 2 o m ` V N V I K n j u 2 @ S 1.5.%.` { ..` n t O - * * O ",
"T K K ~ K n I { n g g j g n n j j j j u u 2 # m I N v n I V j g g 2 @ S 1.2.:.I K F I v 3 - n K N u ",
"Z V I K K n K R v g u u g v v g g n n g u 2 # b K n v n N v j u u 2 o S -.7.;.` V V N j 3 3 :.` ` g ",
"Z K K v K Z v j v g u u g j g 3 t j v g u 2 @ k N n j j v g g g g - # S 2.7.:.` I F n g 3 2 ` R n 2 ",
"Z K N v v v g g j j j g g u t t t u g u u 2 @ k N n j g u g g u g 2 # m ;.1.@.R I N n g 3 2 I V j 3 ",
"v v j u u u u u t t t t t t t 3 3 3 t 3 3 - @ p g j t t 3 3 t 3 3 - o m <.;.;.` R N j g 2 - g u 3 - ",
"4 3 2 2 2 2 2 2 2 2 2 + . . . . . . . . . . # % . o o o o o . . o . # m <.:...R V n g u 2 X 2 3 3 3 ",
":...{ ;.....~ ..~ ` R 4 $ 1 8 d a d d h a 8 5 ; , > & , 4 d d d a 8 1 m <.-.%.R [ K j g 3 - ..w.w.7.",
"%.` R ..@.I K ~ N K I 2 % y n W I ~ ..@.~ n g g u 5 0 y K R K K N v ; v ..;.:.` ` n v g 3 3 1.u.a.w.",
"{ { %.{ R n V K N v n - , V ~ { ..%.R V F v g g j i > h R N j n j j 2 g @.;.:.~ V n g g 3 3 6.r.u.7.",
"R ~ ;.%.K N K n n j n - 3 ` ..{ %.{ n j v g u g j t # h ~ I v j g j - g %.;.F n n n g g 3 t 7.w.<.-.",
"~ N ` @.R N N j j v j * 3 { :.:.%.{ n n j g g g g 3 # p N v j u g u * u ` ..I v v j u u 2 t 0.6.7.<.",
"` K K I K V V n v j g O u ` @.` R K n v v j g g g 3 # 6 2 * * * O * X u R ..` n v j g u 2 t 3.5.%.%.",
"%.R I ` I I K n v g u * u ~ R F I N j j n V n v v 3 t ) / K n n n 3 o b ` ..R n v j g u 3 3 6.9.<.7.",
"~ V K ..@.N F V N g u * u F N R ..I n n W :.R n j t u -.2...K V n t # m <.%.{ N n j g g 2 3 5.9.0.3.",
"~ / W ..;.` n n n j u * 3 n N ` y.` W L I ` n n v t u { ` K J L n 3 # S 1.<.;.R n j g g 3 3 1.w.0.;.",
"^ _ [ _ ..R j g g g t O 2 n N ~ q.%.~ ^ I I N j v 2 u %._ W J n n 3 # S @.{ { R F j u g 3 2 :.6.w.6.",
"L W [ +.R n j u u t t O X v N I ~ ` ^ +.R I j g j 2 u <.:._ n j j 3 # S { { F N n j u u 2 2 :.w.3.%.",
"J J L _ N g g g u t u O X g n F F F [ Q W n j j u 2 u { .._ n j j 2 @ S ..;.` N v j j g 2 2 %.0.;.{ ",
"J L N n n j g n n g u O $ 4 g g j j n j j j g u t - u { ~ n v j j - # S @.;.:.~ n v v g 2 2 -.7.3.` ",
"_ ^ V n v g g j v g u O $ > = O O O O O O O O * O   i ` L j j g u 2 @ S 1.1.{ ~ ^ B v g 3 2 :.7.{ F ",
"^ L N n n j u u u u u O $ 1 i u u u u g g u t t 2 % h ` K j u g u - # S 1.1.{ F H P n j 2 - +.7.:.R ",
"F n n v n v t 3 3 t u O $ 6 j N F K F N N n j j 3 . c [ V n g u u - # S +.%.%.H n n j j 3 * ` :.` F ",
"F v j j j j t t 3 t u O $ 1 v K F F N n n j n n t . c +.W J j g u - # S +.+.^ n g j g u 2 - ~ +.~ I ",
"F V n v v u u t t t u O $ 1 v K N N N n n u j n t o c [ [ W n j g 2 # S <.[ Q n u u g u 2 - ~ ` R I ",
"n j g u u t 3 3 2 3 3 O $ < n F F n j g g u g g 3 o c [ L n v j g 2 # m ..Q N n j g g u 2 * v v v j ",
"o o o o O * * - - - - O , 5 i u t 2 2 2 - 2 3 3 * . x R n v j g g - # b F n j j g g u u 2 o = - - O ",
"> d M M F I ^ _ +.+.{ R I Z k u u t t + # # @ # @ $ x ~ n j g u u 2 # k n u u u g u u u 3 . a j j y ",
"7 ) 2.3.6.6.<.%.7.:.:.1.;.%.;.` T K n = & 4 y p y 0 x V V j u u u - # 6 = O O X X O O O X # 4 t i y ",
"7  .3.<.%.<.<.:.:.@.@.1.;.@.` ~ n v g O % j I ~ j o p N n j g u g 2 # 0 6 6 6 9 5 5 6 6 6 9 9 9 s 9 ",
"7 %.3.;.%.7.%.^ { 2...` ` ~ R F n g u O % v :.] g . 5 t 3 3 2 - - O # 1  .3.2.:.:.:.:.%.:.:.%.%.[ k ",
"7 $.:...{ :.+.` ` %.%.` { R K R n g u O : v { I g . 9 i i g u g t t , 1 $.3.3.<.:.7.-.:...+.-.%.~ u ",
"7 :.-.{ %.+.` +...{ { :.r...N n j g u O : v V g 3 . d { ;.....` ~ n 2 > $.<.<.:.<.0.+.J W J ` N N u ",
"7 $.6.3.%.` +.{ K K R ` ..K F V v g g O : h g 3 2 . c @.%.~ V N n u * : $.3.3.<.:.:.L n N ~ K n n 3 ",
"7 $.%.{ %.5.2.~ K n I { N N V n j g g O $ & o . . # 8 g u u 3 2 2 - X : $.<.w.u.1..._ H P H B P j 2 ",
"7 ..;...e.s.5.R ` K K I K V N j u g u O : x l l z c h g u t u t 3 2 = 1 $.-.-.w.w.%.~ ~ P N P B g 2 ",
"7 $.2.1.0.p.>.I ` K j j n V n u 3 t u X , T ~ R ` ~ { %.( ^ W N n j ; : $.:.....~ ~ I N N Q Q v g - ",
"7 $.>.2.:...R K V n g g g j v u t t t O , Y ~ I R { +.+.{ L L v j u * : $.;.{ I F n N I P H v g g 2 ",
"7 { 2.>.` K R ` ` K v g j j j u g u u O , / ! { +.I I ` +.~ J n g g * : $.-.+.R N j j n N j u u g 2 ",
"7 $.>.:.R K n V { ` n g g n v g u u u O , Y ! ~ I I n I ^ ~ C v g u * : $.<.-.R N n u j j t t 3 t 2 ",
"7 { ` R K K v v K R N j g v n j u g u O 6 Y ~ V n N n n N N n g u u * :  ..._ [ F n g g g g t t t - ",
"7  .R v n n N v n j g g g g v g u g u O : N ~ V v v v v v j j g g u O :  ...I F n n j u u u g u u 2 ",
"1 ) R V n v g g j j g g j u u u g u u O : n V n j j v j g g u g g g ; : T F N N n n g g u g g u u 3 ",
"r Z V n N n v n n v v j v v v j j v v 6 w Z n v n v v v j v v v n v s q Z N n n v n j v v j v j v d "
};
