/* XPM */
static char *ed680d36fbe44e0ee1de90a9a7422601Rinbpm4nFuFd5Tlk[] = {
/* columns rows colors chars-per-pixel */
"50 50 229 2 ",
"   c gray12",
".  c #3D0906",
"X  c #370D0A",
"o  c #3F120F",
"O  c #2B1A19",
"+  c #371716",
"@  c #391B19",
"#  c #23211E",
"$  c #3A063E",
"%  c #3C133F",
"&  c #252423",
"*  c #2D2625",
"=  c #272728",
"-  c #2C2B2B",
";  c #352827",
":  c #353434",
">  c #393736",
",  c #3C3E3E",
"<  c #4A0A06",
"1  c #530A05",
"2  c #590D08",
"3  c #52120D",
"4  c #471612",
"5  c #551A15",
"6  c #630F09",
"7  c #65110A",
"8  c #6B110A",
"9  c #73130B",
"0  c #7C150C",
"q  c #671513",
"w  c #761812",
"e  c #7A271C",
"r  c #5C322F",
"t  c #443B3C",
"y  c #583836",
"u  c #553B3B",
"i  c #722D28",
"p  c #63312A",
"a  c #653936",
"s  c #6A3D3A",
"d  c #49423C",
"f  c #5C4B3D",
"g  c #6B5C29",
"h  c #6B423D",
"j  c #76423E",
"k  c #716E2A",
"l  c #3E0741",
"z  c #3F1841",
"x  c #3F2840",
"c  c #420745",
"v  c #430946",
"b  c #47074B",
"n  c #46094A",
"m  c #490A4D",
"M  c #441547",
"N  c #4B134E",
"B  c #4B1A4E",
"V  c #4C0750",
"C  c #4D0B51",
"Z  c #510C55",
"A  c #550D5B",
"S  c #590E5E",
"D  c #4E1551",
"F  c #4E1B52",
"G  c #511C54",
"H  c #55165A",
"J  c #48274A",
"K  c #473748",
"L  c #583C43",
"P  c #58304D",
"I  c #4E2550",
"U  c #532356",
"Y  c #522B55",
"T  c #552359",
"R  c #59245D",
"E  c #562C59",
"W  c #5A2C5D",
"Q  c #563459",
"!  c #5B3A5D",
"~  c #633A5B",
"^  c #5B0E63",
"/  c #5F0F68",
"(  c #5D1364",
")  c #64126B",
"_  c #641D6B",
"`  c #6A1471",
"'  c #76177E",
"]  c #5E3261",
"[  c #642A69",
"{  c #643867",
"}  c #3E4041",
"|  c #434343",
" . c #4B4547",
".. c #4D4C49",
"X. c #5A4745",
"o. c #504E4B",
"O. c #4F4550",
"+. c #59475B",
"@. c #595559",
"#. c #674946",
"$. c #734541",
"%. c #7B4642",
"&. c #7B4945",
"*. c #744D4A",
"=. c #77504D",
"-. c #6B5756",
";. c #785956",
":. c #796F4E",
">. c #79645A",
",. c #5E4460",
"<. c #634365",
"1. c #68476B",
"2. c #635564",
"3. c #615E61",
"4. c #6B526D",
"5. c #6C5C6D",
"6. c #6E4971",
"7. c #714974",
"8. c #6F5A70",
"9. c #755A76",
"0. c #6A6568",
"q. c #766765",
"w. c #726670",
"e. c #796379",
"r. c #787676",
"t. c #86170E",
"y. c #851C14",
"u. c #981B11",
"i. c #8F281D",
"p. c #982218",
"a. c #A5251A",
"s. c #AB261B",
"d. c #B7291D",
"f. c #843932",
"g. c #AB3329",
"h. c #C42B1F",
"j. c #A8571D",
"k. c #975627",
"l. c #835335",
"z. c #945C32",
"x. c #A35C2A",
"c. c #966A32",
"v. c #AA6730",
"b. c #CB6932",
"n. c #814B47",
"m. c #8B4C47",
"M. c #844D49",
"N. c #9D4E48",
"B. c #89514D",
"V. c #93534E",
"C. c #855753",
"Z. c #825D5B",
"A. c #9A5954",
"S. c #AB4841",
"D. c #A35B55",
"F. c #83605D",
"G. c #8C625E",
"H. c #926B54",
"J. c #A06C46",
"K. c #A6714A",
"L. c #A4625C",
"P. c #A97651",
"I. c #836563",
"U. c #876967",
"Y. c #996562",
"T. c #8B7564",
"R. c #95716E",
"E. c #857B7A",
"W. c #987A78",
"Q. c #A66863",
"!. c #A47F64",
"~. c #B3726D",
"^. c #A47D7A",
"/. c #AA7F7B",
"(. c #BEAE39",
"). c #C2AF3C",
"_. c #AD8E4F",
"`. c #968B7F",
"'. c #A5836A",
"]. c #A28679",
"[. c #AC807C",
"{. c #C98363",
"}. c #7E5E81",
"|. c #7E7681",
" X c #845988",
".X c #846885",
"XX c #847D84",
"oX c #877888",
"OX c #946C95",
"+X c #8F7D91",
"@X c #957994",
"#X c #7E8181",
"$X c #858383",
"%X c #8C8383",
"&X c #8A8688",
"*X c #8C8B8C",
"=X c #968987",
"-X c #9F938B",
";X c #8D8B90",
":X c #958894",
">X c #8D9090",
",X c #959395",
"<X c #9A9493",
"1X c #9A9897",
"2X c #9A939A",
"3X c #9C9B9B",
"4X c #AC9589",
"5X c #A39D9C",
"6X c #AEA39B",
"7X c #A29BA2",
"8X c #9FA0A0",
"9X c #A4A3A4",
"0X c #ACA5A4",
"qX c #A9A9A7",
"wX c #ACABAB",
"eX c #B5ABAA",
"rX c #B2ACAC",
"tX c #B0ADB1",
"yX c #AFB0B0",
"uX c #B4B4B4",
"iX c #BCB4B4",
"pX c #B6B8B8",
"aX c #B7B9B9",
"sX c #BABBBA",
"dX c #C0AC9B",
"fX c #C5BCBC",
"gX c #BFC0BF",
"hX c #C5C0BF",
"jX c #C4C5C5",
/* pixels */
"K , , , , , , , , } , , , , , , , , , , } } } } } x , , , , , d } } } | } } } , , } } } } } } } } , ",
"d a h h h s h h a a  . .X.s s s s s s s $.$.$.$.h h h h u  . .#.%.%.$.$.j s s a r p a s $.h a a y > ",
"f b.d.d.d.a.d.s.d.i.y ..l.h.d.s.s.s.s.s.a.d.s.s.a.s.d.s.e t  .g.h.h.h.d.d.s.s.s.d.d.a.s.p.s.s.s.v.d ",
"_.(.K.].[.^.[.[.[.W.E.*X4X@X~./.^.^.^.^.[.[.[.W.].W.[.[.W.&X%X`./.^.[.[.[.^./.^././.^.^.W.[.[._.).k ",
"H.c.:.#X$X*X>X>X>X>X>X>X>X;X>X:X>X>X>X>X>X>X>X>X>X>X>X>X>X>X>X>X>X>X>X>X;X;X;X;X>X>X>X>X*X#X|.:.v.g ",
"d e n.E.Y.;.;.r.I.;.F.F.F.F.q.;.F.Z.F.F.Z.F.F.F.F.F.F.F.F.>.F.Z.F.F.F.>.q.F.F.Y.Q.~.E.;.-.r.&X#.p t ",
"d p.A.%XS.Y.#.u ;.R.^.W.W.R.R.R.R.R.R.R.R.R.R.R.R.R.R.R.R.R.R.R.R.R.R.R.R.R.W.[./.Q.#.#.-.L.%Xa . # ",
"d q U.<Xh 8X8Xr.&X9XyX,X:XsXjXsXpXpXpXpXpXpXpXpXpXsXpXpXpXpXuXsXpXpXpXpXqX X|.uXpX7XE.>X0XN.r.u X ; ",
" .t E.wXX.>XuX9X&X&X*X,.] |.tXjXjXsXpXpXuXwX2X3X:X:X@X4X4XeXeXeXuXpXyX3Xe.T R ,X9X3X9XpX,XX.&X@.# - ",
"f.i W.pX-.E.9XpX9X#Xr.Y C Z { oXwXpXsXsXpX7XE Q D F R f.b.{.dXuXyX2X}.] D m Q >X1X8XpXgX&XX.,X;.4 i ",
"p.u.L.fX%.&X1XqX8X4.2.@.J l b D [ 7.oX8XtX0X<.m V D G l.'.4X4Xr.7.[ A V m Y 3.5.4.,XuX9Xr.y 5X;.2 u.",
"0 t.Y.iXD.3X,X*X1.( Q @.@.J z l ^ A G { .XwXoXm b m m e.5XE.1.H ^ ^ m z J @.@.( ( 6.3X*X`.j 5XZ.1 w ",
"9 t.Y.eXA.7X2XXXD A ^ H Q O.K z m m m C W 7X+XC m m m @X7XW Z b C C z K  .Y N ^ / _ &X*XE.%.0XZ.1 8 ",
"w t.A.0XV.fXqX*XY n ^ / ^ F J z $ l v W oXqX9.m m m m 9.qXXXE v l l z x z C A / / { |.#X&X%.0X;.1 8 ",
"6 9 Z.0XB.fXtX&X@.J D ^ ( ^ Z A $ $ B <.5.2X{ m m m C { 3X5.<.B l l C l C A / _ ] 0.r.>X<Xn.wX;.1 2 ",
"+ 4 q.0XM.jX:XU @.o.O.Y H ( ^ / m v n m N :X9.m m m C 9.&XB n v l C ( C Z ( 1.5.0.O.K w.<Xn.eXq.X o ",
"K , r.0XM.iX Xm M J K | K Q ] ( S m n v n ! Y m m m m E Q n c c v Z Z E <.5.0.,.J % $ 1.5X&.0X0.& - ",
"X.g.~.tXV.pX}.A V c l % z M R ` Z Z n n m b m m m m m n c c c c n Z ` R W ] B v l $ l 7.5Xn.eX;.4 - ",
"#.d.~.fXA.fX}.A C n v l l l V ` Z Z m n m m F G G R I F n n n m Z Z ' S Z m c l $ $ v 9.5Xm.eXZ.. * ",
"u a.Q.tXV.qX*X<.U C n l l l v ^ A m m m m F +.{ 6.{ { ,.B m Z Z Z S ) A m b v $ $ M +.%X5Xm.0XZ.. * ",
"u p.Y.0XB.@X{ ,.@.,.! Q K J z C Z ^ Z m V G 7.' ` ` ' 7.U m Z S ) A A Y K J x x K O.,.7.:XA.eXZ.. * ",
"L p.A.5XM.U.m D H R F I B M z v n A ) A m F 6.` ) ) ` 1.F C A ) S Z D N M M z z M F D ^ @XD.fXU.. ; ",
"L p.Y.<X$.9.V C C C C n n b b v m m m m m G 6.' ) ` ' 7.G C C Z Z C C v c c c c n C A ^ OXD.fXI.. * ",
" .p I.<X#.e.m C C C C n m m N F m m B J m G 2.[ Q _ [ 2.G m F G V m I v c c c c n m S ^ OXV.eX>.O = ",
"X.X.E.5X&.XXE n C n N D I Q F D m D Y D m F 2.5.@.2.5.@.F V F Y D n M B Q J N v n V A W &XB.0X0.# t ",
"i.p.Q.0Xn.7XXX<.] ] +.,.Q B D n F ! B m m n N Q 2.4.Q D C V m F ! F n n M Q +.+.] [ 1.XX5Xn.0X;.1 t.",
"y.t.Q.0XM.rXwX<X|.7.,.D m m m F ! F n m m m m m C C m n m m m m F ! B v c v D 1.9.oX<X9X3X$.<X;.1 0 ",
"w t.L.qXM.wX.X{ U V m m n m F ] F m U ] E D m m n m m m F E Q U m F ! F c n V C C R { e.&Xa %X*.1 8 ",
"y.0 Y.0XM.rX9.b m m m n m F ] F n D 5.w.E N n m m m m m C E w.5.D b D ] F m C Z Z Z V 6.>Xs *X*.1 9 ",
"w 0 A.0XB.rX>XU b n m V F ! F m m ] 6.D C m m m m m m m n C D 6.{ n n F ] F C C C C U &X<Xj <X=.1 6 ",
"3 < Z.0XV.rXwX4.D V m F ] I m m m ] D m m m m b m m n m m m n D ] C V n I ! F C V C 4.qXqX&.0X;.< < ",
"; * r.iXV.iXhX9X4.G T <.F n b N 6.[ V m m n C D m m D C m m m m ] 6.C m m F <.R G 4.8XuXrXM.0Xq.O O ",
"d h =XfXD.hXjXsXqX2X2X@XU n m 7.7XOX( m m m T Y m m R U m m m R OX7X7.m m R oX,X,XqXuXuXtXB.eX0.O - ",
"u d.~.eXA.eXfXpXuXuX5X!.G.4..XqXqX].~ m n m m m m m m n m b m ~ ].0X0X.X4.I.'.5XuXpXsXfXiXA.iXG.< ; ",
"u s.L.eXV.wXuXuXuXtX!.x.z.K.P.P.c.z.s P G 4.7.m m m m 7.4.H P j k.J.P.P.K.x.x.'.sXjXjXjXhXD.fXI.. * ",
"y a.L.0XV.rXuXuXuXuX5XT.l.j.j.j.j.l.T.5X7X+XR m m m m R +X7X5XT.l.k.j.j.k.l.T.6XuXsXsXjXiXD.iXG.. * ",
"t s.Q.5Xm.qXyXyXuXuX].z.z.x.x.c.P.z.K.qX+XR n m m m m m R +XqXK.k.P.c.j.x.z.z.].uXuXuXpXiXV.eXF.. * ",
"u a.D.5Xn.5XqXqXwXuXH.:.=XP.z.-XqX=XT.5.G m m m m m m m m G 5.T.`.qX<Xz.P.&X:.H.tXuXuXuXqXM.wXZ.. * ",
"u e Z.0Xn.0XtXrXuXuX0X9XwX'.z.qX:X5.E N m b C D m m N m m m N T w.:X0Xz.'.yX9X0XiXuXtXuXwXn.qX;.X * ",
", t r.0X%.5XpXuXuXuXuXuXpX5X'.:XQ N b m m U 1.E m m E 1.U m m b N Q :X'.5XuXpXpXuXuXuXuX3X%.eX0.# * ",
"i f.W.rX;.I.7XwXuXuXpXuXuXuXuXqX&X4.Y m E XXe.m m m m e.$XE m Y 4.&XqXuXuXuXuXuXuXuXtX5XI.*.rXq.@ p ",
"y.u.M.9X5X;.j n.E.5X0XqXpXuXuXuXuXqX,X:X2X7XW b m m m W 7X2X:X,XqXpXuXuXuXuXwXqX5X=XB.j ;.,X9X$.1 9 ",
"y.9 5 =.1X5X-XE.&.M.j U.=X5XyXuXuXpXuXpXpXqX4.N m m N 4.qXpXpXuXpXuXpXyX5X=XI.&.%.n.E.-X5X1X-.3 1 2 ",
"w 9 1 3 y q.3XwXrXqX=XZ.&.*.I.W.9XyXuXuXpXuX9X4.N N 4.7XuXuXuXpXyX9XW.Z.*.&.C.,X0XwX5XXX;.y 3 1 6 0 ",
"q t.8 6 1 5 r $.;.$XqXyX9X=XG.=.&.C.=X9XwXuXuX9X5.5.8XpXuXrX9X=XC.&.=.I.=X9XyX8X$X;.a 5 1 1 2 8 9 t.",
"q t.0 8 9 9 2 1 3 5 p -.%X5X5X5X=XU.&.&.&.U.=X9X9X9XqX=XU.j %.%.U.=X5X9X8X*X0.p 5 1 1 1 7 w 7 7 t.7 ",
"6 8 6 6 6 6 2 7 8 < < < 3 4  .w.*X8XqX7X=XC.$.=.U.U.=.%.;.`.9X3X*XW.q.u 4 : - < < < 7 6 6 8 8 7 8 2 ",
"@ @ @ + @ @ @ @ @ @ @ @ @ + & & : ..0.r.>XqX8XW.Y.U.W.3XqX>Xr.o.: + + O O = - @ @ @ @ + + + + + @ @ ",
"> } | } > } } } | | } > > : - - - = = = >  .@.r.8X8Xr.3...: =   = - - - - - > , |  ., } } , > , } , ",
"..o...o.....o.o.o.o......... ., : : - = # # # - > > - # # # # # & : : > d | ....o.o.o.o.o.....o....."
};
