/* XPM */
static char *_ca41ccd62e0428586aac1c129b76805TJTSirP12rBSqT26[] = {
/* columns rows colors chars-per-pixel */
"50 50 206 2 ",
"   c #2F2614",
".  c #362916",
"X  c #392C17",
"o  c #3E2E18",
"O  c #3E321A",
"+  c #1F2020",
"@  c #222222",
"#  c #2C2C2C",
"$  c #362D22",
"%  c #3F3223",
"&  c #343434",
"*  c #373838",
"=  c #3A3A3A",
"-  c #5C0E07",
";  c #55130B",
":  c #670F08",
">  c #671009",
",  c #75140C",
"<  c #7E160E",
"1  c #7B1E12",
"2  c #412F19",
"3  c #542E1A",
"4  c #44341B",
"5  c #49361D",
"6  c #46381D",
"7  c #4A3A1E",
"8  c #54351E",
"9  c #662716",
"0  c #66371D",
"q  c #483720",
"w  c #4E3B20",
"e  c #533E23",
"r  c #423C37",
"t  c #6C491F",
"y  c #4F4029",
"u  c #564024",
"i  c #5B4326",
"p  c #5E4529",
"a  c #44413B",
"s  c #514737",
"d  c #584731",
"f  c #5E4B36",
"g  c #524838",
"h  c #594F3F",
"j  c #624325",
"k  c #614729",
"l  c #65492A",
"z  c #6B4C2D",
"x  c #7B472B",
"c  c #714F2F",
"v  c #6F502E",
"b  c #71512E",
"n  c #674E36",
"m  c #695037",
"M  c #6A533D",
"N  c #745231",
"B  c #7A5433",
"V  c #7E5836",
"C  c #74553B",
"Z  c #7A5A3D",
"A  c #454545",
"S  c #4C4942",
"D  c #4C4C4C",
"F  c #5E5344",
"G  c #585655",
"H  c #5B5B5B",
"J  c #6D4A48",
"K  c #645343",
"L  c #675848",
"P  c #685D55",
"I  c #77614C",
"U  c #6F6251",
"Y  c #776858",
"T  c #676869",
"R  c #6B6C6C",
"E  c #7A6D63",
"W  c #7A7267",
"Q  c #757575",
"!  c #797670",
"~  c #777878",
"^  c #7D7D7D",
"/  c #862217",
"(  c #942015",
")  c #9C2116",
"_  c #A33C2F",
"`  c #814824",
"'  c #935E22",
"]  c #914837",
"[  c #835233",
"{  c #815937",
"}  c #855C39",
"|  c #8A5E3B",
" . c #A65F3E",
".. c #966123",
"X. c #9B6623",
"o. c #9F6A24",
"O. c #8B732F",
"+. c #8D7C2D",
"@. c #917D2E",
"#. c #8E613E",
"$. c #91623F",
"%. c #A56224",
"&. c #A46E26",
"*. c #B06D2A",
"=. c #BA732C",
"-. c #BB782C",
";. c #A87631",
":. c #BA7B34",
">. c #C77A2D",
",. c #C57E2E",
"<. c #885F4E",
"1. c #8A664A",
"2. c #956541",
"3. c #996742",
"4. c #9C6A44",
"5. c #956B4A",
"6. c #876B56",
"7. c #966F53",
"8. c #8C725D",
"9. c #9C7256",
"0. c #A26C46",
"q. c #A56F49",
"w. c #A6704A",
"e. c #AB734C",
"r. c #B1774E",
"t. c #B2784F",
"y. c #AC7853",
"u. c #B57B52",
"i. c #BA7D54",
"p. c #867465",
"a. c #977D68",
"s. c #8F7472",
"d. c #887C75",
"f. c #A47B6D",
"g. c #C66C4F",
"h. c #9A852F",
"j. c #958131",
"k. c #9B8533",
"l. c #9F8830",
"z. c #A38B33",
"x. c #A88E34",
"c. c #A99036",
"v. c #C68534",
"b. c #C68836",
"n. c #AC9D4F",
"m. c #BD8056",
"M. c #BE855C",
"N. c #A39B58",
"B. c #AAA15C",
"V. c #BAAB53",
"C. c #9D816D",
"Z. c #86807C",
"A. c #98887D",
"S. c #A3836C",
"D. c #B68868",
"F. c #AB8871",
"G. c #B18B72",
"H. c #BA9378",
"J. c #B6AD61",
"K. c #B8AF62",
"L. c #C28156",
"P. c #C5855A",
"I. c #C9865A",
"U. c #CA8A5D",
"Y. c #D28A5E",
"T. c #D3BD49",
"R. c #C9B858",
"E. c #C18D6A",
"W. c #D38E61",
"Q. c #D88E61",
"!. c #DD9364",
"~. c #D9976A",
"^. c #CC9C7C",
"/. c #D19F7D",
"(. c #E79A69",
"). c #E49B6B",
"_. c #C3B966",
"`. c #EEA16E",
"'. c #E5A175",
"]. c #ECA474",
"[. c #ECA97B",
"{. c #F0AC7E",
"}. c #7F8080",
"|. c #858585",
" X c #888787",
".X c #8B8B8C",
"XX c #968C89",
"oX c #96928F",
"OX c #949493",
"+X c #9C9794",
"@X c #9A9A96",
"#X c #979798",
"$X c #979899",
"%X c #989898",
"&X c #999999",
"*X c #9A9A9A",
"=X c #A4958B",
"-X c #B79A8A",
";X c #A79B96",
":X c #CB9583",
">X c #D8AE90",
",X c #EDAC82",
"<X c #F1B48B",
"1X c #F3BC97",
"2X c #CEBBB0",
"3X c #F4C8AA",
/* pixels */
"a S S S S S S S S S S S S S S S S S S S S S S A S S S S S S S S S S S S S S S S S S S S S S S S S a ",
"q e e e e e e e w u y u e e y e e e e e e w e e e e e e e e e e e e e e e e e e e e e e e e e e e q ",
"z B B B B B C N N B B B B N B N B N B B B B B B C B B B N B C B B B B B C B B B B B C B B B B b B z ",
"w i p k k i i 5 w p i u i p p p i p p e i 4 e k k i e 5 w k i i i e e 4 e p p i p i p p k u 7 5 k e ",
"6 7 p v z i l q w v w 6 6 i l u u i 6 6 z O i N e k l q e N e q e u z o l p i 6 e e i i z k 8 7 B e ",
"6 7 p v O.j.k.+.j.l.j.+.j.j.k.j.j.j.+.j.k.+.j.z.@.j.j.+.@.z.j.+.j.j.j.+.k.j.j.+.j.@.@.h.@.O.j 4 B e ",
"6 7 u v x.Y.b.b.b.b.b.b.b.b.b.b.b.v.v.b.b.v.,.,.,.,.,.,.,.,.,.,.,.,.,.,.-.-.-.-.-.-.-.=.=.' 4 5 B e ",
"w w 7 t x.:.p d d d d d d d d d d d d d d d d d f n f f f f f n f f M n M n M M K C M K j.' o 5 N e ",
"u u 6 w z.:.g R ~ ~ ~ ~ Q ~ ~ Q ~ ~ ~ ~ ~ ~ ~ ~ }.^ }.^ }.}.}.}.^ ^ |.~ d.|.|.|.|.|.|.|.c.' o 5 N e ",
"u u 6 w l.:.g |.*X$X*X$X#X*X*X*X*X*X$X*XOXZ.T H H H H H Q  X#X#X#X*X#X*X*X*X*X$X@X*X#X@Xn.' 4 5 b w ",
"u l 7 7 l.:.s }.*X*X$X$X#X#X#X*X@X#X*XOXT A = # # # # # # & A R *X*X*X*X#X#X#X$X$X$X#X@Xn...2 5 b 4 ",
"w l i 7 z.:.s |.#X$X#X*X@X#X%X#X@X$X@XS.P * # a D H D = = & # = R $X#X#X*X#X$X$X$X@XOX@Xn.' 2 5 N 7 ",
"6 l v u l.x.s }.*X#X@X#X#X*X@X#X$X@X=X).:XG.Y 5.E ^ Q = H H A # & ~ *X#X*X$X#X@X$X@X$X$Xn.' o 4 N 7 ",
"4 k v l z.>.s |.*X#X#X#X#X#X#X#X$X#X^.<X1X1X-Xf.7.G D & A D A & @ S .X*X#X#X#X#X$X$X#X*Xn.' 2 5 N 6 ",
"O j v v c.:.s Z.*X#X#X*X%X#X*X*X@X-X[.<X1X1X>XD.J * = & & = * # + & ^ *X#X#X@X#X@X#X#X@Xn.' 2 5 N 8 ",
"6 w l v c.:.s |.#X@X*X#X@X#X#X#X$XH.M.~.1X<X,X,X9.C n f r = & @ + # ^ *X#X@X#X#X@X*X#X@Xn.' 2 5 B e ",
"6 7 p b x.:.h  X*X#X#X#X#X#X@X*X$X%Xm C D.<X<X<X'.U.e.w.#.d # @ @ # ^ *X#X@X#X#X$X#X*X#Xn.' 2 4 B e ",
"6 7 u l x.:.h  X*X#X*X@X#X@X#X*X;X>XD.7.~.[.<X,X(.!.P.m.e.v $ + # A  X*X#X#X#X#X*X#X#X@Xn.' 2 7 B e ",
"6 7 w y l.:.h  X*X#X#X#X$X$X#X;X2X3X[.~.[.<X[.(.!.!.P.3.m.k $ + = Q OX$X*X@X@X*X%X%X#X@XV.' . 4 B e ",
"7 6 7 7 l.=.h  X#X#X*X#X#X*X*X=X~.D.M.!.(.].`.(.Y.W.U.L.e.i $ # H OX*X$X#X#X#X#X%X#X*X@XV.' . 5 N e ",
"7 7 7 7 l.*.h  X@X*X#X#X#X@X#X@X+XF } ~.'.`.(.!.P.P.W.u.N p % = ^ #X@X#X#X#X#X@X%X%X%X+XV.' . 5 N w ",
"e 7 7 7 z.=.h |.*X#X#X@X@X%X#X#X%XC.P.{.].`.!.L.e.w.u.#.N l d P OX#X#X#X#X*X#X@X%X%X%X%XV.' . 7 N w ",
"7 u 7 7 h.=.h  X#X#X#X*X*X#X#X#X%X^.].[.[.(.Y.e.2.4.U.U.w.N p ! #X#X#X#X@X#X#X$X%X@X%X%XV.' . 4 c 6 ",
"6 i 7 6 z.=.h |.*X@X#X#X#X#X*X@X%X/.[.~.!.U.e.$.2.m.].'.U.4.B I oX#X*X#X*X#X*X$X@X%X#X%XR.' . 6 c 4 ",
"4 u w u l.=.h Z.%X%X%X%X%X%X#X%X@X-X:XD.4.2.| 3.u.~.!.m.4.} N n Y Z.oX@X#X#X*X$X$X@X@X@XR.... 5 N O ",
"o u u k x.-.h  X*X#X%X%X%X%X*X#X@X@X@XXXs.5.2.e.W.M.4.$.#.N z z b C Y Z..X@X$X$X@X@X#X#XR.' . 6 N 4 ",
"O 7 i k z.=.h  X#X*X#X*X%X@X#X#X$X$X#XOXF.u.r.I.y.3.$.| N b } $.$.| V 1.Y Z.OX*X#X#X@X#XR.' . 5 z O ",
"o 6 i i l.-.h  X#X@X%X#X%X%X#X*X$XOX XF.i.P.u.q.4.$.{ b | 4.e.e.e.w.q. .2.Z E .X$X$X*X*XR.... 5 B q ",
"O 6 w u l.-.h |.%X@X#X#X@X#X$X#XOX|.6.u.u.P.i.w.2.c } 4.w.w.0.3.0.e.e.e.q.#.Z W OX@X#X*XR.' . 5 N q ",
"6 6 6 7 l.-.h  X%X%X#X*X#X#X*X@X XI { e.e.P.u.2.N | w.e.w.0.} [ $.$.$.$.#.| { N d.*X@X@XR.' . 5 B e ",
"6 6 6 6 l.=.h  X%X%X%X%X#X*X#XOXp.B { 4.2.q.2.V 4.e.e.e.q.$.N N $.$.$.$.| { V N p.*X#X@XR.' . 5 B e ",
"6 6 4 6 l.=.h  X%X%X%X#X*X#X*X.X<.} B B } { V q.e.e.e.e.4.B k V r.t.t.w.$.$.N l ! *X#X@XR.' . 5 B e ",
"7 8 7 7 l.=.h  X*X#X%X#X%X%X%XA.$.} z N #.4.4.y.e.e.e.w.2.c C e.i.r.r.3.4.2.c e W *X#X@XR.... 4 N w ",
"7 u 7 7 l.=.h  X%X%X%X%X%X%XoXp.#.} b V 4.e.m.u.y.w.w.$.x e 2.r.e.i.e.2.4.| z e W *X*X@XR.... 5 N 6 ",
"u i w u z.=.h  X@X%X%X%X#X@XXX5.#.{ N #.e.m.u.m.t.2.| { n p.-Xy.y.u.0.2.q.2.l e Q *X#X@XR.' . 5 N 6 ",
"7 k u u z.-.K  X*X#X%X%X*X*Xd.1.#.V V 2.3.#.N 2.e.V N v Y T .X;Xg. .2.2.e.} e g |.#X#X#XR.... 5 N 6 ",
"6 k j k x.-.L  X*X%X%X%X#XOX8.2.#.B } 4.e.3.u z V b J P d.G *X2X:X_ <.2.q.{ e K .X#X*X@XR.' . 4 N O ",
"4 k l l z.*.L .X%X%X%X%X*Xd.5.3.$.B $.w.u.t.| #.B 0 <.s.~ G H R f.( 1 _ 4.B w U #X@X#X@XR.... 7 N O ",
"O u v v x.*.L  X*X#X*X#X*Xa.4.2.{ b $.y.u.u.$.[ [ / ) :X.XT OX|.<.( , , x k w U *X*X$X@XR.' . 5 b 4 ",
"O u z v z.*.L  X+X%X*X*X*XS.4.| #.#.$.e.e.y.| $.t. .` ] s.A.;Xs.x < , : 9 w e Y #X#X$X@XR.' . 5 N 4 ",
"O w l v z.*.L .X%X*X%X#X=XP.e.2.2.4.$.| $.u.I.r.u.P.4.x _ _ ( / , , : - ; 8 j Y *X#X*X@XR.... 4 N 5 ",
"O 7 i z z.*.L .X*X%X%X#X=XE.i.u.i.0.$.4.w.Y.!.i.t.Y.i.0.z 0 1 / , : - ; 3 i b 8.#X@X#X@XR.... 7 B 5 ",
"4 6 e k z.*.L .X%X#X*X%X#X=XE.E.H.m.q.y.I.Y.i.i.I.Q.U.0.} p 9 < > - ; 3 l B $.S.#X#X@X@XR.' . 5 B 5 ",
"4 6 w i l.*.L .X#X*X#X%X*X#X=X;X+X=XD.I.I.I.u.e.r.i.i.e.| l e ; ; 3 i v 2.9.S.+X*X#X#X@XR.... 4 B e ",
"6 6 6 y l.*.L .X$X#X*X*X#X#X#X#X*X*X=XH.H.G.G.G.G.G.G.G.S.8.P J L 6.a.a.F.#X*X#X#X@X#X@XR.... 5 V e ",
"w 6 6 7 h.>.;.N.B.B.B.B.B.B.B.B.B.J.J.J.J.J.J.V.J._._._._._._._._._._._._._._._._._._._.T.' . 5 B i ",
"w w 6 7 @.%.%.o.%.X.' X.X.X.X.X.X.%.o.o.X.o.%.&.&.&.&.&.&.&.&.&.&.&.&.&.&.&.&.&.&.&.&.&.&.` . 4 V i ",
"u w 6 6 t j 8 8 5 5 4 4 4 5 4 2 4 5 w 5 5 4 4 5 4 8 4 4 2 5 o o o 4 5 o 2 5 5 5 4 4 4 4 5 4   5 C k ",
"i u 7 7 w k k 4 4 u 2 O 6 7 O O 6 i p e p X 7 l i w w o 4 i O O O q i . w u w u 4 O O O 6 w 4 6 B p ",
"u u u w u u z 5 u b 7 6 6 7 6 7 i p i u v 4 p c w 7 z q e c w q w e z o z z w p w 6 6 6 q p i 6 N u "
};
