/* XPM */
static char *a831e9c3d29e4739f5caac1ae572b4c3ghQGb9Rkg9qVSJ39[] = {
/* columns rows colors chars-per-pixel */
"50 50 193 2 ",
"   c #3E0A07",
".  c #340F0C",
"X  c #3C0E0B",
"o  c #31100E",
"O  c #3C100E",
"+  c #2F1816",
"@  c #2B1C1B",
"#  c #351614",
"$  c #3C1512",
"%  c #361816",
"&  c #3B1916",
"*  c #341C1A",
"=  c #3C1D1A",
"-  c #34201F",
";  c #3B221F",
":  c #272323",
">  c #2C2424",
",  c #2E2827",
"<  c #2D2B2B",
"1  c #322423",
"2  c #3B2624",
"3  c #312827",
"4  c #3C2827",
"5  c #332D2D",
"6  c #3B2D2C",
"7  c #35302F",
"8  c #3F302E",
"9  c #353333",
"0  c #3A3535",
"q  c #3C3837",
"w  c #373839",
"e  c #3C3C3C",
"r  c #430B07",
"t  c #4E0B06",
"y  c #440E0A",
"u  c #4C0E09",
"i  c #540C07",
"p  c #5D0D07",
"a  c #520E09",
"s  c #5D0F09",
"d  c #45110D",
"f  c #4A120E",
"g  c #54110B",
"h  c #5C120C",
"j  c #441511",
"k  c #4D1511",
"l  c #431815",
"z  c #4A1915",
"x  c #421D1B",
"c  c #491C19",
"v  c #541611",
"b  c #5B1913",
"n  c #581F1A",
"m  c #610E07",
"M  c #630F08",
"N  c #65110A",
"B  c #6C120A",
"V  c #74140C",
"C  c #7B160D",
"Z  c #641A15",
"A  c #6B1A13",
"S  c #6C1F19",
"D  c #7C1B13",
"F  c #42211E",
"G  c #58211D",
"H  c #72231C",
"J  c #7B221A",
"K  c #442422",
"L  c #492623",
"P  c #442E2C",
"I  c #4E2C29",
"U  c #5E2B26",
"Y  c #512E2A",
"T  c #592E2B",
"R  c #54322F",
"E  c #453534",
"W  c #4C3533",
"Q  c #423837",
"!  c #4A3836",
"~  c #423D3C",
"^  c #4C3C3B",
"/  c #503634",
"(  c #5B3632",
")  c #543937",
"_  c #5A3A37",
"`  c #533C3A",
"'  c #5C3D3A",
"]  c #6D2B26",
"[  c #6A2E29",
"{  c #732D27",
"}  c #7E2C25",
"|  c #67312D",
" . c #6E312C",
".. c #72322D",
"X. c #7D332D",
"o. c #633734",
"O. c #693B37",
"+. c #633D39",
"@. c #693D3A",
"#. c #743732",
"$. c #763933",
"%. c #7B3A35",
"&. c #7B3E38",
"*. c #42403F",
"=. c #4F413F",
"-. c #53403F",
";. c #5C413F",
":. c #61413E",
">. c #6C413D",
",. c #70413E",
"<. c #3C3F40",
"1. c #3E4141",
"2. c #434343",
"3. c #4B4444",
"4. c #4F4847",
"5. c #454748",
"6. c #464949",
"7. c #4C4C4C",
"8. c #544443",
"9. c #5B4442",
"0. c #534847",
"q. c #514D4C",
"w. c #5B4B49",
"e. c #52504F",
"r. c #4C4F50",
"t. c #525252",
"y. c #644643",
"u. c #6A4440",
"i. c #684B48",
"p. c #734541",
"a. c #7D4742",
"s. c #714946",
"d. c #764E4B",
"f. c #7B534F",
"g. c #615251",
"h. c #81170E",
"j. c #84180F",
"k. c #89190F",
"l. c #861910",
"z. c #8B1A11",
"x. c #941C12",
"c. c #961D12",
"v. c #9B1D13",
"b. c #A21F14",
"n. c #84231B",
"m. c #8C241B",
"M. c #962016",
"N. c #9A2117",
"B. c #94241B",
"V. c #9B251B",
"C. c #97281E",
"Z. c #9D281E",
"A. c #A42015",
"S. c #A52317",
"D. c #AB2116",
"F. c #A32419",
"G. c #AB2519",
"H. c #AC2419",
"J. c #A4281E",
"K. c #A9291E",
"L. c #BB2417",
"P. c #B22519",
"I. c #B2261A",
"U. c #B7271B",
"Y. c #BF291D",
"T. c #802C25",
"R. c #8D2C23",
"E. c #812F28",
"W. c #932D24",
"Q. c #9B2D24",
"!. c #84322B",
"~. c #8D332B",
"^. c #9F3027",
"/. c #92342D",
"(. c #9D3229",
"). c #8A3730",
"_. c #813A34",
"`. c #843F38",
"'. c #943A33",
"]. c #9A3E37",
"[. c #A22D23",
"{. c #A82B20",
"}. c #B42D22",
"|. c #BC2E22",
" X c #A93429",
".X c #A6382F",
"XX c #A13C34",
"oX c #C12A1D",
"OX c #CA2C1F",
"+X c #C62E22",
"@X c #C13024",
"#X c #994038",
"$X c #814540",
/* pixels */
"w 1.2.1.1.1.1.1.1.1.2.2.2.e 1.1.1.1.1.1.1.1.2.2.1.1.1.1.1.1.1.2.1.2.1.2.2.<.1.1.e e 1.1.1.2.1.1.1.<.",
"~ @.>.@.@.@.>.>.@.+.3.5.w.O.O.@.@.@.@.@.p.p.u.s.u.@.@.@.' 3.2.y.p.a.p.p.p.@.@.O.o.o.@.+.u.>.+.+.+.^ ",
"W @XY.I.U.F.I.G.I.x.R 6.$XOXG.H.G.G.G.A.G.I.G.G.G.A.U.U.l.W 2.).oXoXY.|.|.I.H.G.I.U.H.b.A.A.S.K.x.U ",
") I.x.x.x.x.z.z.z.B 2 1.a.U.z.z.z.l.z.z.j.v.z.h.z.h.x.z.h 6 6.).b.x.h.z.k.h.k.j.z.v.z.x.h.z.h.z.V x ",
") J.l.z.C z.z.C h.i - 5.p.A.x.z.l.C z.h.C l.C V k.C h.V a 5 2.).k.j.V z.V h.C h.z.z.C z.l.l.C l.M = ",
"` Z.j.l.C z.C C C t * 1.,.G.x.z.C h.z.V C h.C V h.V C V a 3 <.!.z.j.C j.V C B h.z.h.h.z.l.h.V l.M % ",
"^ B.h.C B V B V B t - 1.@.v.h.V B V V C B B V B V M V B u 3 <.X.j.V M V B B B B C B M V M B C C s * ",
"E H N h r y y y y   - w _ A h a a a a a u u u y r   y r X 3 <.| N s v h a a a a a u u a u u g u r * ",
"e ~ 5 5 5 9 5 < : : < e 3.~ 5 5 9 3 : : > 5 5 > : < 5 7 7 w 6.2.0 0 0 0 Q 0 Q 0 7 , > > 5 9 9 5 5 5 ",
"$.X...[ ..#.#. .| [  . .( 7.0.&._.$.X...$.%.$.#.....$.#.#.$.#...&.&.%.&.$X$X&.&.#._ <.8._._._.%.&.%.",
"v.v.A.b.x.x.x.x.x.x.N.k.n 2.w.}.A.U.A.A.x.A.x.b.b.b.x.k.v.x.x.v.x.v.x.b.v.b.b.b.x.G 2.;.+XH.A.b.b.S.",
"V k.k.j.V C C l.V j.x.B # e 9.K.k.k.l.z.h.z.V z.V C j.h.C C C x.C C l.l.C k.x.z.M % 1.9.K.z.z.h.h.z.",
"B z.z.l.V C C h.C C h.m $ 9 8.Z.h.z.j.h.V C V C C V k.C V V C z.B V h.C C C k.C s # 0 9.V.k.x.k.z.h.",
"B l.h.C V C V l.V C j.m # 9 0.J.h.h.h.j.B C M V B C h.B V h.V V B C V h.V C h.h.M # 9 -.V.z.k.V z.C ",
"h C B p N V V V M V C p # e w.Z.C V B V V V M B M V V V B V B V B C B V M V V C p o 9 8.x.C V p V V ",
". f d X d d y y d d X X % <.0.{ b v v g v v v v v v v k f f d u f k y f d u k k X + w =.H k k O j k ",
"9 e 9 5 0 0 5 < 9 9 < < 9 6.5.3.~ 0 9 7 7 7 0 e ~ ~ 9 w 5 < < < 7 0 0 5 < < 0 0 0 <.5.5.2.9 9 e 0 0 ",
"9.]./.R.)./.).~.T.} } T.T.T.!.!.!.!.} } } { 3.r.a.(./.'./.R.R.!.~.~.!.E.} } T.!.!.).!.E.!.} T.!.} ' ",
";.|.b.b.v.A.x.x.v.v.x.b.b.x.x.x.v.v.j.A.x.h Q t.XXL.v.D.b.x.v.v.v.v.x.C x.j.j.x.k.x.v.z.x.k.x.h.C x ",
"W {.k.x.j.h.V C z.z.l.k.k.V j.C z.V V h.h.a 5 t.#XI.z.h.l.V C C j.V h.V h.V C C j.j.j.C z.h.j.B i * ",
"W B.j.z.B V B V l.C C l.h.B C C h.j.B C B r 5 t.].v.h.h.C B h.C k.C C C j.V C V j.j.h.C z.h.k.B i * ",
"-.V.C C M V V V h.V V z.V B j.C V C V C C a 5 7.'.b.h.C h.C l.V h.B V M B B B V V C C k.C M B V i % ",
"/ Q.V N M M M p M B B V B B B M m B B B M y 3 2.).x.V V V M B M B B B B s B p V i B p V B M B V i % ",
"Q ..Z z z z z z z z z z z l $ & l l & l $ # 5 2.O.n z z z z z z j j j z c c l j O j l l l & l z & > ",
"3.7.5.^ <.q q 0 7 0 1.4.4.3.2.~ ^ Q q 7 0 0 0 3.4.~ ~ ~ ~ ~ ~ 0 9 5 5 e 4.3.~ 0 5 0 Q ~ ~ w ~ Q ~ Q ",
"} Q.Q.W.W.W.Q.R.] 1.4.]..X^.[.[.^.W.R.R.m.m.R.R.W.R.W.R.R.W.R.( 6.y.^.[.^.^.^.Q.Q.Q.W.R.R.W.W.R.W.R.",
"j.x.v.v.b.v.b.k.z e =.J.k.h.h.x.k.k.j.x.j.j.h.h.x.V x.h.k.j.V K 6.s.I.k.l.j.v.C k.k.h.k.l.k.k.k.k.h.",
"V C k.k.k.h.x.B O 0 3.Q.C k.h.k.h.j.C k.h.V V V h.C C C k.V V 2 7.d.K.V j.C j.C j.x.h.h.C h.j.h.h.V ",
"C C k.k.x.h.h.B O e 4.Q.C j.h.k.V C C j.C V h.B h.V C C j.k.B 2 r.f.A.k.z.C h.j.k.h.j.j.j.j.k.j.V C ",
"D C j.j.h.h.k.B j 1.4.W.C h.B j.C V h.z.j.V V M C B z.C j.h.B * 6.s.J.C z.j.h.z.h.h.j.j.C h.k.C j.C ",
"g s B M p B p i $ w 4.J B h.M C B V B V B M M N V M V B V M i % 1.u.x.B V V h.V C C V C B V V B C B ",
"- * * = * = * & - 0 7.( x $ & = = K L K = % % % = = = ; = = * 3 2.0.T x x K L I L x = & = F = = = = ",
"1.-.` ! E ! ^ Q E E -.-.E P E ! ^ ^ 9.8.^ E P E ^ ~ 2.~ ^ ! ! ! 9.w.0.! =.=.w.g.0.` ! Q ^ =.^ 3.^ ~ ",
"`  X{.{.F.[.{.v.W.x.W.x.x.R.v.W.B.C.B.W.B.N.m.B.n.! 6.`.|.K.J.Z.J.Z.J.V.B.C.m.C.B.C.B.B.V.C.B.B.m.R ",
";.{.j.h.j.V x.j.k.j.C V z.C h.V z.k.V h.h.z.h.C N 6 6.`.A.z.V V V B C C C l.B C C C h.h.j.h.j.C B % ",
"' {.V h.V V V C C j.V V l.V h.B B h.N C V V C C a 1 1._.v.l.B B C B B C B h.V V C V C l.h.C C V B + ",
"` {.j.j.C V C C h.l.h.B h.V C B C C C l.C l.h.V a : w `.b.V C B C B C C B V B V C C h.h.j.V h.C B * ",
"` {.h.C h.V C h.C h.h.C l.B C B B h.V V V C C C s @ e `.v.B V V B B C C B V V B C C C C j.C h.V M + ",
"` m.B B M M B B B N h M B s i i t M i s s s N M u > 1.%.C B N M B s B N a N p s M s p M M p M s i * ",
"*.W 4 2 4 4 2 2 2 6 8 6 1 @ @ - 1 1 @ @ @ 1 1 @ * 9 2.=.P 4 4 4 4 - * 4 6 P 4 - 1 1 1 @ @ @ 1 > 3 3 ",
"9.+.' +.+.;.' ' ' i.d.y.;.-.3.5.0.@.R R ( +.y.+.( _ :.;.' ' ' _ ' ' ' ' 9.7.7.;.+.+.( Y K L R ' ;.:.",
"B.A.N.K.x.B.x.v.[.x.x.v.x.z.W r.`.oXG.G.N.A.N.A.N.x.M.M.N.N.M.M.M.z.M.z.S ~ 4.XXG.N.F.N.x.x.x.M.M.M.",
"D C C z.C V C V k.V B V V s - 1.%.v.k.j.C B s C h.C C V z.V V V V B C B f 0 q.(.j.V C V l.C l.C h.B ",
"l.B N l.V V V h.V N C B C a 3 1.$.x.V V C B B C C V l.V C V C V B B V B y 9 t.(.C C B z.l.V C B B B ",
"S C V V B C C C C M V V h.u 1 1.$.v.B C C C B C V B C V V B C V V h V B X 9 7.(.z.B C h.V V V V B h.",
"Z l.C B h.V h.V V B V j.C s 1 2.$.C C h.C V V B N N V V V B C B V N V M y 5 2.W.C h.V B l.C B M C V ",
"A C B B B B B V V B B B V a 1 2.&.x.p V V B N M V B V N C B C V V B B B y < 2.W.B s B N C C V B V V ",
"c f d d y j y y f k d d d O 1 5.:.Z O O d f d d f f f d d d d y y y y X # , 3...f X f d d u y f d d ",
"w 0 0 9 < 5 0 0 0 0 w 9 0 0 0 7.e.2.~ w 0 e 0 0 w 0 9 0 0 9 < < < < 5 5 < 5 2.7.0 0 0 0 0 < < , 9 0 ",
"q.7.7.7.6.7.r.7.7.t.t.7.r.7.t.t.t.t.t.t.7.t.t.7.t.7.7.4.r.7.7.6.7.2.5.7.7.5.7.r.7.7.t.7.7.7.6.7.r.7."
};
